<?xml version="1.0" encoding="UTF-8" standalone="no"?>
<!DOCTYPE svg PUBLIC "-//W3C//DTD SVG 1.1//EN"
 "http://www.w3.org/Graphics/SVG/1.1/DTD/svg11.dtd">
<!-- Generated by graphviz version 12.2.1 (0)
 -->
<!-- Pages: 1 -->
<svg width="979pt" height="714pt"
 viewBox="0.00 0.00 979.33 713.98" xmlns="http://www.w3.org/2000/svg" xmlns:xlink="http://www.w3.org/1999/xlink">
<g id="graph0" class="graph" transform="scale(1 1) rotate(0) translate(4 709.98)">
<polygon fill="white" stroke="none" points="-4,4 -4,-709.98 975.33,-709.98 975.33,4 -4,4"/>
<!-- bash_login -->
<g id="node1" class="node">
<title>bash_login</title>
<ellipse fill="none" stroke="black" cx="446.71" cy="-522" rx="29.86" ry="18"/>
<text text-anchor="middle" x="446.71" y="-516.95" font-family="Times,serif" font-size="14.00">login</text>
</g>
<!-- bash_interactive -->
<g id="node3" class="node">
<title>bash_interactive</title>
<ellipse fill="none" stroke="black" cx="426.71" cy="-450" rx="49.82" ry="18"/>
<text text-anchor="middle" x="426.71" y="-444.95" font-family="Times,serif" font-size="14.00">interactive</text>
</g>
<!-- bash_login&#45;&gt;bash_interactive -->
<g id="edge3" class="edge">
<title>bash_login&#45;&gt;bash_interactive</title>
<path fill="none" stroke="red" d="M436.27,-504.76C433.26,-497.21 430.35,-488 428.17,-479.36"/>
<polygon fill="red" stroke="red" points="431.59,-478.62 426.03,-469.6 424.75,-480.12 431.59,-478.62"/>
</g>
<!-- bash_login&#45;&gt;bash_interactive -->
<g id="edge36" class="edge">
<title>bash_login&#45;&gt;bash_interactive</title>
<path fill="none" stroke="purple" d="M447.68,-503.7C446.28,-496.04 443.88,-486.85 441.11,-478.3"/>
<polygon fill="purple" stroke="purple" points="444.46,-477.29 437.81,-469.05 437.87,-479.64 444.46,-477.29"/>
</g>
<!-- bash_non_interactive -->
<g id="node4" class="node">
<title>bash_non_interactive</title>
<ellipse fill="none" stroke="black" cx="561.71" cy="-450" rx="66.71" ry="18"/>
<text text-anchor="middle" x="561.71" y="-444.95" font-family="Times,serif" font-size="14.00">non&#45;interactive</text>
</g>
<!-- bash_login&#45;&gt;bash_non_interactive -->
<g id="edge14" class="edge">
<title>bash_login&#45;&gt;bash_non_interactive</title>
<path fill="none" stroke="orange" d="M464.17,-507C479.35,-496.95 501.67,-483.22 521.18,-471.87"/>
<polygon fill="orange" stroke="orange" points="522.84,-474.96 529.77,-466.94 519.35,-468.89 522.84,-474.96"/>
</g>
<!-- bash_login&#45;&gt;bash_non_interactive -->
<g id="edge48" class="edge">
<title>bash_login&#45;&gt;bash_non_interactive</title>
<path fill="none" stroke="black" d="M469.74,-510.06C487.44,-500.3 511.85,-485.71 531.14,-473.47"/>
<polygon fill="black" stroke="black" points="532.91,-476.49 539.43,-468.14 529.12,-470.61 532.91,-476.49"/>
</g>
<!-- bash_non_login -->
<g id="node2" class="node">
<title>bash_non_login</title>
<ellipse fill="none" stroke="black" cx="561.71" cy="-522" rx="46.75" ry="18"/>
<text text-anchor="middle" x="561.71" y="-516.95" font-family="Times,serif" font-size="14.00">non&#45;login</text>
</g>
<!-- bash_non_login&#45;&gt;bash_interactive -->
<g id="edge26" class="edge">
<title>bash_non_login&#45;&gt;bash_interactive</title>
<path fill="none" stroke="green" d="M534.71,-507C514.52,-496.53 486.65,-482.08 464.28,-470.48"/>
<polygon fill="green" stroke="green" points="465.95,-467.41 455.46,-465.91 462.73,-473.62 465.95,-467.41"/>
</g>
<!-- bash_non_login&#45;&gt;bash_non_interactive -->
<g id="edge32" class="edge">
<title>bash_non_login&#45;&gt;bash_non_interactive</title>
<path fill="none" stroke="blue" d="M555.79,-503.7C555.04,-496.41 554.79,-487.73 555.06,-479.54"/>
<polygon fill="blue" stroke="blue" points="558.55,-479.82 555.71,-469.61 551.56,-479.36 558.55,-479.82"/>
</g>
<!-- bash_non_login&#45;&gt;bash_non_interactive -->
<g id="edge59" class="edge">
<title>bash_non_login&#45;&gt;bash_non_interactive</title>
<path fill="none" stroke="grey" d="M567.62,-503.7C568.37,-496.41 568.62,-487.73 568.35,-479.54"/>
<polygon fill="grey" stroke="grey" points="571.85,-479.36 567.7,-469.61 564.86,-479.82 571.85,-479.36"/>
</g>
<!-- etc_profile -->
<g id="node18" class="node">
<title>etc_profile</title>
<ellipse fill="none" stroke="black" cx="426.71" cy="-378" rx="51.35" ry="18"/>
<text text-anchor="middle" x="426.71" y="-372.95" font-family="Times,serif" font-size="14.00">/etc/profile</text>
</g>
<!-- bash_interactive&#45;&gt;etc_profile -->
<g id="edge4" class="edge">
<title>bash_interactive&#45;&gt;etc_profile</title>
<path fill="none" stroke="red" d="M420.79,-431.7C420.04,-424.41 419.79,-415.73 420.06,-407.54"/>
<polygon fill="red" stroke="red" points="423.55,-407.82 420.71,-397.61 416.56,-407.36 423.55,-407.82"/>
</g>
<!-- bash_interactive&#45;&gt;etc_profile -->
<g id="edge37" class="edge">
<title>bash_interactive&#45;&gt;etc_profile</title>
<path fill="none" stroke="purple" d="M432.62,-431.7C433.37,-424.41 433.62,-415.73 433.35,-407.54"/>
<polygon fill="purple" stroke="purple" points="436.85,-407.36 432.7,-397.61 429.86,-407.82 436.85,-407.36"/>
</g>
<!-- etc_bashrc -->
<g id="node22" class="node">
<title>etc_bashrc</title>
<ellipse fill="none" stroke="black" cx="561.71" cy="-306" rx="70.29" ry="18"/>
<text text-anchor="middle" x="561.71" y="-300.95" font-family="Times,serif" font-size="14.00">/etc/bash.bashrc</text>
</g>
<!-- bash_interactive&#45;&gt;etc_bashrc -->
<g id="edge27" class="edge">
<title>bash_interactive&#45;&gt;etc_bashrc</title>
<path fill="none" stroke="green" d="M446.28,-432.98C458.33,-422.8 473.88,-409.12 486.71,-396 506.43,-375.82 526.95,-351.17 541.53,-332.93"/>
<polygon fill="green" stroke="green" points="544.17,-335.23 547.64,-325.22 538.69,-330.89 544.17,-335.23"/>
</g>
<!-- bash_non_interactive&#45;&gt;etc_profile -->
<g id="edge15" class="edge">
<title>bash_non_interactive&#45;&gt;etc_profile</title>
<path fill="none" stroke="orange" d="M527.44,-434.15C506.85,-424.13 480.87,-410.76 460.39,-399.69"/>
<polygon fill="orange" stroke="orange" points="462.32,-396.76 451.86,-395.03 458.96,-402.9 462.32,-396.76"/>
</g>
<!-- bash_non_interactive&#45;&gt;etc_profile -->
<g id="edge49" class="edge">
<title>bash_non_interactive&#45;&gt;etc_profile</title>
<path fill="none" stroke="black" d="M536.51,-432.94C517.29,-422.35 490.55,-408.44 468.22,-397.4"/>
<polygon fill="black" stroke="black" points="469.87,-394.31 459.35,-393.06 466.79,-400.6 469.87,-394.31"/>
</g>
<!-- bash_non_interactive&#45;&gt;etc_bashrc -->
<g id="edge60" class="edge">
<title>bash_non_interactive&#45;&gt;etc_bashrc</title>
<path fill="none" stroke="grey" d="M561.71,-431.59C561.71,-407.61 561.71,-364.14 561.71,-335.42"/>
<polygon fill="grey" stroke="grey" points="565.21,-335.62 561.71,-325.62 558.21,-335.62 565.21,-335.62"/>
</g>
<!-- bash_env -->
<g id="node32" class="node">
<title>bash_env</title>
<ellipse fill="none" stroke="black" cx="458.71" cy="-162" rx="63.63" ry="18"/>
<text text-anchor="middle" x="458.71" y="-156.95" font-family="Times,serif" font-size="14.00">$BASH_ENV</text>
</g>
<!-- bash_non_interactive&#45;&gt;bash_env -->
<g id="edge33" class="edge">
<title>bash_non_interactive&#45;&gt;bash_env</title>
<path fill="none" stroke="blue" d="M585.08,-432.78C638.99,-393.45 762.94,-290.73 702.71,-216 681.4,-189.57 594.86,-175.65 530.87,-168.81"/>
<polygon fill="blue" stroke="blue" points="531.41,-165.35 521.11,-167.81 530.7,-172.32 531.41,-165.35"/>
</g>
<!-- bash_remote -->
<g id="node5" class="node">
<title>bash_remote</title>
<ellipse fill="none" stroke="black" cx="385.71" cy="-604.99" rx="100.94" ry="28.99"/>
<text text-anchor="middle" x="385.71" y="-608.19" font-family="Times,serif" font-size="14.00">remote shell</text>
<text text-anchor="middle" x="385.71" y="-591.69" font-family="Times,serif" font-size="14.00">(running under rsh/ssh)</text>
</g>
<!-- bash_remote&#45;&gt;bash_login -->
<g id="edge35" class="edge">
<title>bash_remote&#45;&gt;bash_login</title>
<path fill="none" stroke="purple" d="M400.25,-576.12C407.11,-566.37 415.36,-555.54 423.05,-546.22"/>
<polygon fill="purple" stroke="purple" points="425.68,-548.52 429.5,-538.64 420.35,-543.99 425.68,-548.52"/>
</g>
<!-- bash_remote&#45;&gt;bash_login -->
<g id="edge47" class="edge">
<title>bash_remote&#45;&gt;bash_login</title>
<path fill="none" stroke="black" d="M412.78,-576.57C419.97,-567.64 427.39,-557.75 433.53,-548.93"/>
<polygon fill="black" stroke="black" points="436.32,-551.04 438.98,-540.78 430.51,-547.14 436.32,-551.04"/>
</g>
<!-- bash_remote&#45;&gt;bash_non_login -->
<g id="edge58" class="edge">
<title>bash_remote&#45;&gt;bash_non_login</title>
<path fill="none" stroke="grey" d="M438.03,-579.91C465.08,-567.47 497.53,-552.53 522.4,-541.09"/>
<polygon fill="grey" stroke="grey" points="523.57,-544.4 531.19,-537.04 520.64,-538.05 523.57,-544.4"/>
</g>
<!-- bash_local -->
<g id="node6" class="node">
<title>bash_local</title>
<ellipse fill="none" stroke="black" cx="561.71" cy="-604.99" rx="57.49" ry="18"/>
<text text-anchor="middle" x="561.71" y="-599.94" font-family="Times,serif" font-size="14.00">normal shell</text>
</g>
<!-- bash_local&#45;&gt;bash_login -->
<g id="edge2" class="edge">
<title>bash_local&#45;&gt;bash_login</title>
<path fill="none" stroke="red" d="M534.66,-588.76C515.39,-576.27 489.88,-558.45 471.2,-544.51"/>
<polygon fill="red" stroke="red" points="473.42,-541.79 463.34,-538.54 469.18,-547.37 473.42,-541.79"/>
</g>
<!-- bash_local&#45;&gt;bash_login -->
<g id="edge13" class="edge">
<title>bash_local&#45;&gt;bash_login</title>
<path fill="none" stroke="orange" d="M543.73,-587.41C526.07,-573.9 499.1,-554.87 477.99,-541"/>
<polygon fill="orange" stroke="orange" points="480.02,-538.15 469.73,-535.66 476.23,-544.03 480.02,-538.15"/>
</g>
<!-- bash_local&#45;&gt;bash_non_login -->
<g id="edge25" class="edge">
<title>bash_local&#45;&gt;bash_non_login</title>
<path fill="none" stroke="green" d="M556.07,-586.82C554.95,-576.51 554.68,-563.14 555.24,-551.31"/>
<polygon fill="green" stroke="green" points="558.7,-551.89 555.96,-541.66 551.72,-551.37 558.7,-551.89"/>
</g>
<!-- bash_local&#45;&gt;bash_non_login -->
<g id="edge31" class="edge">
<title>bash_local&#45;&gt;bash_non_login</title>
<path fill="none" stroke="blue" d="M567.34,-586.82C568.46,-576.51 568.73,-563.14 568.18,-551.31"/>
<polygon fill="blue" stroke="blue" points="571.69,-551.37 567.45,-541.66 564.71,-551.89 571.69,-551.37"/>
</g>
<!-- sh_login -->
<g id="node7" class="node">
<title>sh_login</title>
<ellipse fill="none" stroke="black" cx="181.71" cy="-378" rx="29.86" ry="18"/>
<text text-anchor="middle" x="181.71" y="-372.95" font-family="Times,serif" font-size="14.00">login</text>
</g>
<!-- sh_interactive -->
<g id="node9" class="node">
<title>sh_interactive</title>
<ellipse fill="none" stroke="black" cx="201.71" cy="-306" rx="49.82" ry="18"/>
<text text-anchor="middle" x="201.71" y="-300.95" font-family="Times,serif" font-size="14.00">interactive</text>
</g>
<!-- sh_login&#45;&gt;sh_interactive -->
<g id="edge92" class="edge">
<title>sh_login&#45;&gt;sh_interactive</title>
<path fill="none" stroke="red" stroke-dasharray="5,2" d="M186.55,-360.05C188.68,-352.6 191.24,-343.64 193.64,-335.22"/>
<polygon fill="red" stroke="red" points="196.97,-336.31 196.35,-325.73 190.24,-334.38 196.97,-336.31"/>
</g>
<!-- sh_non_interactive -->
<g id="node10" class="node">
<title>sh_non_interactive</title>
<ellipse fill="none" stroke="black" cx="66.71" cy="-306" rx="66.71" ry="18"/>
<text text-anchor="middle" x="66.71" y="-300.95" font-family="Times,serif" font-size="14.00">non&#45;interactive</text>
</g>
<!-- sh_login&#45;&gt;sh_non_interactive -->
<g id="edge97" class="edge">
<title>sh_login&#45;&gt;sh_non_interactive</title>
<path fill="none" stroke="orange" stroke-dasharray="5,2" d="M161.15,-364.49C144.86,-354.57 121.72,-340.49 102.42,-328.74"/>
<polygon fill="orange" stroke="orange" points="104.39,-325.84 94.03,-323.63 100.75,-331.82 104.39,-325.84"/>
</g>
<!-- sh_non_login -->
<g id="node8" class="node">
<title>sh_non_login</title>
<ellipse fill="none" stroke="black" cx="86.71" cy="-378" rx="46.75" ry="18"/>
<text text-anchor="middle" x="86.71" y="-372.95" font-family="Times,serif" font-size="14.00">non&#45;login</text>
</g>
<!-- sh_non_login&#45;&gt;sh_interactive -->
<g id="edge101" class="edge">
<title>sh_non_login&#45;&gt;sh_interactive</title>
<path fill="none" stroke="green" stroke-dasharray="5,2" d="M110.81,-362.33C127.26,-352.31 149.29,-338.9 167.54,-327.8"/>
<polygon fill="green" stroke="green" points="169.22,-330.87 175.94,-322.68 165.58,-324.89 169.22,-330.87"/>
</g>
<!-- sh_non_login&#45;&gt;sh_non_interactive -->
<g id="edge105" class="edge">
<title>sh_non_login&#45;&gt;sh_non_interactive</title>
<path fill="none" stroke="blue" stroke-dasharray="5,2" d="M81.76,-359.7C79.63,-352.24 77.08,-343.32 74.7,-334.97"/>
<polygon fill="blue" stroke="blue" points="78.12,-334.21 72.01,-325.56 71.39,-336.14 78.12,-334.21"/>
</g>
<!-- dot_profile -->
<g id="node21" class="node">
<title>dot_profile</title>
<ellipse fill="none" stroke="black" cx="246.71" cy="-234" rx="45.72" ry="18"/>
<text text-anchor="middle" x="246.71" y="-228.95" font-family="Times,serif" font-size="14.00">~/.profile</text>
</g>
<!-- sh_interactive&#45;&gt;dot_profile -->
<g id="edge93" class="edge">
<title>sh_interactive&#45;&gt;dot_profile</title>
<path fill="none" stroke="red" stroke-dasharray="5,2" d="M212.6,-288.05C217.74,-280.06 223.99,-270.33 229.73,-261.4"/>
<polygon fill="red" stroke="red" points="232.63,-263.37 235.09,-253.06 226.74,-259.58 232.63,-263.37"/>
</g>
<!-- env -->
<g id="node31" class="node">
<title>env</title>
<ellipse fill="none" stroke="black" cx="174.71" cy="-162" rx="34.46" ry="18"/>
<text text-anchor="middle" x="174.71" y="-156.95" font-family="Times,serif" font-size="14.00">$ENV</text>
</g>
<!-- sh_interactive&#45;&gt;env -->
<g id="edge102" class="edge">
<title>sh_interactive&#45;&gt;env</title>
<path fill="none" stroke="green" stroke-dasharray="5,2" d="M198.39,-287.59C193.84,-263.61 185.57,-220.14 180.11,-191.42"/>
<polygon fill="green" stroke="green" points="183.55,-190.77 178.24,-181.6 176.67,-192.08 183.55,-190.77"/>
</g>
<!-- sh_running -->
<g id="node16" class="node">
<title>sh_running</title>
<ellipse fill="none" stroke="black" cx="210.71" cy="-90" rx="47.26" ry="18"/>
<text text-anchor="middle" x="210.71" y="-84.95" font-family="Times,serif" font-size="14.00">running...</text>
</g>
<!-- sh_non_interactive&#45;&gt;sh_running -->
<g id="edge106" class="edge">
<title>sh_non_interactive&#45;&gt;sh_running</title>
<path fill="none" stroke="blue" stroke-dasharray="5,2" d="M70.13,-287.78C77.1,-256.32 95.42,-188.7 131.71,-144 142.7,-130.46 158.07,-119.06 172.33,-110.36"/>
<polygon fill="blue" stroke="blue" points="173.77,-113.57 180.66,-105.52 170.25,-107.52 173.77,-113.57"/>
</g>
<!-- sh_non_interactive&#45;&gt;dot_profile -->
<g id="edge98" class="edge">
<title>sh_non_interactive&#45;&gt;dot_profile</title>
<path fill="none" stroke="orange" stroke-dasharray="5,2" d="M103.57,-290.67C132.92,-279.25 174.01,-263.27 204.65,-251.36"/>
<polygon fill="orange" stroke="orange" points="205.55,-254.76 213.6,-247.88 203.01,-248.24 205.55,-254.76"/>
</g>
<!-- zsh_login -->
<g id="node11" class="node">
<title>zsh_login</title>
<ellipse fill="none" stroke="black" cx="696.71" cy="-604.99" rx="29.86" ry="18"/>
<text text-anchor="middle" x="696.71" y="-599.94" font-family="Times,serif" font-size="14.00">login</text>
</g>
<!-- zsh_interactive -->
<g id="node13" class="node">
<title>zsh_interactive</title>
<ellipse fill="none" stroke="black" cx="676.71" cy="-522" rx="49.82" ry="18"/>
<text text-anchor="middle" x="676.71" y="-516.95" font-family="Times,serif" font-size="14.00">interactive</text>
</g>
<!-- zsh_login&#45;&gt;zsh_interactive -->
<g id="edge64" class="edge">
<title>zsh_login&#45;&gt;zsh_interactive</title>
<path fill="none" stroke="red" d="M692.46,-586.82C689.94,-576.58 686.66,-563.32 683.75,-551.55"/>
<polygon fill="red" stroke="red" points="687.17,-550.77 681.37,-541.9 680.37,-552.45 687.17,-550.77"/>
</g>
<!-- zsh_non_interactive -->
<g id="node14" class="node">
<title>zsh_non_interactive</title>
<ellipse fill="none" stroke="black" cx="811.71" cy="-522" rx="66.71" ry="18"/>
<text text-anchor="middle" x="811.71" y="-516.95" font-family="Times,serif" font-size="14.00">non&#45;interactive</text>
</g>
<!-- zsh_login&#45;&gt;zsh_non_interactive -->
<g id="edge73" class="edge">
<title>zsh_login&#45;&gt;zsh_non_interactive</title>
<path fill="none" stroke="orange" d="M715.32,-590.56C721.76,-585.92 729.04,-580.72 735.71,-576 749.87,-565.98 765.58,-555 779.03,-545.64"/>
<polygon fill="orange" stroke="orange" points="780.91,-548.6 787.12,-540.02 776.91,-542.85 780.91,-548.6"/>
</g>
<!-- zsh_non_login -->
<g id="node12" class="node">
<title>zsh_non_login</title>
<ellipse fill="none" stroke="black" cx="791.71" cy="-604.99" rx="46.75" ry="18"/>
<text text-anchor="middle" x="791.71" y="-599.94" font-family="Times,serif" font-size="14.00">non&#45;login</text>
</g>
<!-- zsh_non_login&#45;&gt;zsh_interactive -->
<g id="edge81" class="edge">
<title>zsh_non_login&#45;&gt;zsh_interactive</title>
<path fill="none" stroke="green" d="M770.08,-588.76C752.52,-576.39 727.53,-558.8 707.83,-544.92"/>
<polygon fill="green" stroke="green" points="710.06,-542.21 699.87,-539.31 706.03,-547.93 710.06,-542.21"/>
</g>
<!-- zsh_non_login&#45;&gt;zsh_non_interactive -->
<g id="edge87" class="edge">
<title>zsh_non_login&#45;&gt;zsh_non_interactive</title>
<path fill="none" stroke="blue" d="M795.95,-586.82C798.48,-576.58 801.75,-563.32 804.66,-551.55"/>
<polygon fill="blue" stroke="blue" points="808.04,-552.45 807.04,-541.9 801.24,-550.77 808.04,-552.45"/>
</g>
<!-- etc_zshenv -->
<g id="node23" class="node">
<title>etc_zshenv</title>
<ellipse fill="none" stroke="black" cx="808.71" cy="-450" rx="52.38" ry="18"/>
<text text-anchor="middle" x="808.71" y="-444.95" font-family="Times,serif" font-size="14.00">/etc/zshenv</text>
</g>
<!-- zsh_interactive&#45;&gt;etc_zshenv -->
<g id="edge65" class="edge">
<title>zsh_interactive&#45;&gt;etc_zshenv</title>
<path fill="none" stroke="red" d="M699.97,-505.64C718.62,-495.08 745.07,-480.99 767.27,-469.76"/>
<polygon fill="red" stroke="red" points="768.72,-472.95 776.1,-465.35 765.59,-466.69 768.72,-472.95"/>
</g>
<!-- zsh_interactive&#45;&gt;etc_zshenv -->
<g id="edge82" class="edge">
<title>zsh_interactive&#45;&gt;etc_zshenv</title>
<path fill="none" stroke="green" d="M707.61,-507.5C727.98,-497.44 754.51,-483.51 775.35,-472"/>
<polygon fill="green" stroke="green" points="777.02,-475.08 784.04,-467.14 773.6,-468.97 777.02,-475.08"/>
</g>
<!-- zsh_non_interactive&#45;&gt;etc_zshenv -->
<g id="edge74" class="edge">
<title>zsh_non_interactive&#45;&gt;etc_zshenv</title>
<path fill="none" stroke="orange" d="M805.05,-503.7C803.98,-496.41 803.37,-487.73 803.28,-479.54"/>
<polygon fill="orange" stroke="orange" points="806.78,-479.69 803.51,-469.62 799.78,-479.53 806.78,-479.69"/>
</g>
<!-- zsh_non_interactive&#45;&gt;etc_zshenv -->
<g id="edge88" class="edge">
<title>zsh_non_interactive&#45;&gt;etc_zshenv</title>
<path fill="none" stroke="blue" d="M816.88,-503.7C817.32,-496.41 817.19,-487.73 816.58,-479.54"/>
<polygon fill="blue" stroke="blue" points="820.06,-479.17 815.5,-469.61 813.1,-479.93 820.06,-479.17"/>
</g>
<!-- bash_running -->
<g id="node15" class="node">
<title>bash_running</title>
<ellipse fill="none" stroke="black" cx="458.71" cy="-90" rx="47.26" ry="18"/>
<text text-anchor="middle" x="458.71" y="-84.95" font-family="Times,serif" font-size="14.00">running...</text>
</g>
<!-- dot_bash_logout -->
<g id="node24" class="node">
<title>dot_bash_logout</title>
<ellipse fill="none" stroke="black" cx="458.71" cy="-18" rx="66.19" ry="18"/>
<text text-anchor="middle" x="458.71" y="-12.95" font-family="Times,serif" font-size="14.00">~/.bash_logout</text>
</g>
<!-- bash_running&#45;&gt;dot_bash_logout -->
<g id="edge11" class="edge">
<title>bash_running&#45;&gt;dot_bash_logout</title>
<path fill="none" stroke="red" d="M447.03,-72.41C445.38,-64.85 444.85,-55.69 445.44,-47.1"/>
<polygon fill="red" stroke="red" points="448.87,-47.83 446.74,-37.46 441.94,-46.9 448.87,-47.83"/>
</g>
<!-- bash_running&#45;&gt;dot_bash_logout -->
<g id="edge23" class="edge">
<title>bash_running&#45;&gt;dot_bash_logout</title>
<path fill="none" stroke="orange" d="M458.71,-71.7C458.71,-64.41 458.71,-55.73 458.71,-47.54"/>
<polygon fill="orange" stroke="orange" points="462.21,-47.62 458.71,-37.62 455.21,-47.62 462.21,-47.62"/>
</g>
<!-- bash_running&#45;&gt;dot_bash_logout -->
<g id="edge45" class="edge">
<title>bash_running&#45;&gt;dot_bash_logout</title>
<path fill="none" stroke="purple" d="M470.39,-72.41C472.04,-64.85 472.56,-55.69 471.97,-47.1"/>
<polygon fill="purple" stroke="purple" points="475.47,-46.9 470.67,-37.46 468.54,-47.83 475.47,-46.9"/>
</g>
<!-- zsh_running -->
<g id="node17" class="node">
<title>zsh_running</title>
<ellipse fill="none" stroke="black" cx="889.71" cy="-162" rx="47.26" ry="18"/>
<text text-anchor="middle" x="889.71" y="-156.95" font-family="Times,serif" font-size="14.00">running...</text>
</g>
<!-- dot_zlogout -->
<g id="node27" class="node">
<title>dot_zlogout</title>
<ellipse fill="none" stroke="black" cx="889.71" cy="-90" rx="48.79" ry="18"/>
<text text-anchor="middle" x="889.71" y="-84.95" font-family="Times,serif" font-size="14.00">~/.zlogout</text>
</g>
<!-- zsh_running&#45;&gt;dot_zlogout -->
<g id="edge71" class="edge">
<title>zsh_running&#45;&gt;dot_zlogout</title>
<path fill="none" stroke="red" d="M883.79,-143.7C883.04,-136.41 882.79,-127.73 883.06,-119.54"/>
<polygon fill="red" stroke="red" points="886.55,-119.82 883.71,-109.61 879.56,-119.36 886.55,-119.82"/>
</g>
<!-- zsh_running&#45;&gt;dot_zlogout -->
<g id="edge79" class="edge">
<title>zsh_running&#45;&gt;dot_zlogout</title>
<path fill="none" stroke="orange" d="M895.62,-143.7C896.37,-136.41 896.62,-127.73 896.35,-119.54"/>
<polygon fill="orange" stroke="orange" points="899.85,-119.36 895.7,-109.61 892.86,-119.82 899.85,-119.36"/>
</g>
<!-- dot_bash_profile -->
<g id="node19" class="node">
<title>dot_bash_profile</title>
<ellipse fill="none" stroke="black" cx="518.71" cy="-234" rx="67.22" ry="18"/>
<text text-anchor="middle" x="518.71" y="-228.95" font-family="Times,serif" font-size="14.00">~/.bash_profile</text>
</g>
<!-- etc_profile&#45;&gt;dot_bash_profile -->
<g id="edge5" class="edge">
<title>etc_profile&#45;&gt;dot_bash_profile</title>
<path fill="none" stroke="red" d="M423.83,-359.82C430.39,-341.82 448.52,-312.75 464.71,-288 470.92,-278.5 477.89,-268.16 485.18,-259.15"/>
<polygon fill="red" stroke="red" points="487.64,-261.66 491.55,-251.82 482.35,-257.07 487.64,-261.66"/>
</g>
<!-- etc_profile&#45;&gt;dot_bash_profile -->
<g id="edge16" class="edge">
<title>etc_profile&#45;&gt;dot_bash_profile</title>
<path fill="none" stroke="orange" d="M437.06,-360.16C448.17,-342.18 466.42,-312.9 482.71,-288 488.39,-279.3 494.73,-269.89 500.47,-261.45"/>
<polygon fill="orange" stroke="orange" points="503.27,-263.56 506.02,-253.33 497.49,-259.61 503.27,-263.56"/>
</g>
<!-- etc_profile&#45;&gt;dot_bash_profile -->
<g id="edge50" class="edge">
<title>etc_profile&#45;&gt;dot_bash_profile</title>
<path fill="none" stroke="black" d="M449.26,-361.46C465.27,-343.62 484.02,-313.52 500.71,-288 506.27,-279.49 512.45,-270.3 517.28,-262"/>
<polygon fill="black" stroke="black" points="520.23,-263.9 521.81,-253.42 514.05,-260.63 520.23,-263.9"/>
</g>
<!-- dot_bash_login -->
<g id="node20" class="node">
<title>dot_bash_login</title>
<ellipse fill="none" stroke="black" cx="371.71" cy="-234" rx="61.59" ry="18"/>
<text text-anchor="middle" x="371.71" y="-228.95" font-family="Times,serif" font-size="14.00">~/.bash_login</text>
</g>
<!-- etc_profile&#45;&gt;dot_bash_login -->
<g id="edge6" class="edge">
<title>etc_profile&#45;&gt;dot_bash_login</title>
<path fill="none" stroke="red" d="M411.24,-360.43C396.86,-336.64 379.08,-292.47 371.65,-263.41"/>
<polygon fill="red" stroke="red" points="375.11,-262.83 369.54,-253.82 368.28,-264.34 375.11,-262.83"/>
</g>
<!-- etc_profile&#45;&gt;dot_bash_login -->
<g id="edge17" class="edge">
<title>etc_profile&#45;&gt;dot_bash_login</title>
<path fill="none" stroke="orange" d="M420.07,-359.87C410.74,-335.78 393.63,-291.6 382.46,-262.77"/>
<polygon fill="orange" stroke="orange" points="385.79,-261.66 378.91,-253.6 379.26,-264.19 385.79,-261.66"/>
</g>
<!-- etc_profile&#45;&gt;dot_bash_login -->
<g id="edge51" class="edge">
<title>etc_profile&#45;&gt;dot_bash_login</title>
<path fill="none" stroke="black" d="M429.19,-359.59C424.81,-335.05 407.91,-290.1 392.73,-261.43"/>
<polygon fill="black" stroke="black" points="395.93,-259.99 387.98,-252.99 389.83,-263.42 395.93,-259.99"/>
</g>
<!-- etc_profile&#45;&gt;dot_profile -->
<g id="edge7" class="edge">
<title>etc_profile&#45;&gt;dot_profile</title>
<path fill="none" stroke="red" d="M399.51,-362.34C362.81,-337.98 300.04,-288.95 267.09,-259.34"/>
<polygon fill="red" stroke="red" points="269.47,-256.77 259.74,-252.57 264.72,-261.92 269.47,-256.77"/>
</g>
<!-- etc_profile&#45;&gt;dot_profile -->
<g id="edge18" class="edge">
<title>etc_profile&#45;&gt;dot_profile</title>
<path fill="none" stroke="orange" d="M406.41,-360.99C374.28,-335.64 311.63,-286.22 275.08,-257.38"/>
<polygon fill="orange" stroke="orange" points="277.59,-254.91 267.57,-251.46 273.25,-260.4 277.59,-254.91"/>
</g>
<!-- etc_profile&#45;&gt;dot_profile -->
<g id="edge52" class="edge">
<title>etc_profile&#45;&gt;dot_profile</title>
<path fill="none" stroke="black" d="M414.46,-360.15C386.88,-333.97 323.25,-283.59 282.36,-255.39"/>
<polygon fill="black" stroke="black" points="284.5,-252.61 274.25,-249.91 280.58,-258.41 284.5,-252.61"/>
</g>
<!-- etc_profile&#45;&gt;etc_bashrc -->
<g id="edge38" class="edge">
<title>etc_profile&#45;&gt;etc_bashrc</title>
<path fill="none" stroke="purple" d="M454.68,-362.5C473.93,-352.52 499.79,-339.1 521.28,-327.96"/>
<polygon fill="purple" stroke="purple" points="522.81,-331.11 530.08,-323.4 519.59,-324.9 522.81,-331.11"/>
</g>
<!-- dot_bash_profile&#45;&gt;bash_running -->
<g id="edge8" class="edge">
<title>dot_bash_profile&#45;&gt;bash_running</title>
<path fill="none" stroke="red" d="M520.41,-215.62C525.73,-196.92 534.34,-166.82 522.71,-144 516.04,-130.92 504.46,-120.31 492.91,-112.12"/>
<polygon fill="red" stroke="red" points="494.86,-109.21 484.59,-106.64 491.01,-115.06 494.86,-109.21"/>
</g>
<!-- dot_bash_profile&#45;&gt;bash_running -->
<g id="edge42" class="edge">
<title>dot_bash_profile&#45;&gt;bash_running</title>
<path fill="none" stroke="purple" d="M533.49,-215.96C543.62,-197.29 552.41,-166.96 540.71,-144 532.77,-128.43 517.89,-116.37 502.88,-107.71"/>
<polygon fill="purple" stroke="purple" points="504.87,-104.81 494.4,-103.22 501.6,-110.99 504.87,-104.81"/>
</g>
<!-- dot_bash_profile&#45;&gt;bash_env -->
<g id="edge19" class="edge">
<title>dot_bash_profile&#45;&gt;bash_env</title>
<path fill="none" stroke="orange" d="M498.65,-216.41C490.68,-208.16 481.74,-198.01 474.26,-188.78"/>
<polygon fill="orange" stroke="orange" points="477.21,-186.87 468.29,-181.15 471.7,-191.18 477.21,-186.87"/>
</g>
<!-- dot_bash_profile&#45;&gt;bash_env -->
<g id="edge53" class="edge">
<title>dot_bash_profile&#45;&gt;bash_env</title>
<path fill="none" stroke="black" d="M509.79,-215.7C503.34,-207.14 494.55,-196.67 486.02,-187.33"/>
<polygon fill="black" stroke="black" points="488.77,-185.14 479.37,-180.25 483.67,-189.93 488.77,-185.14"/>
</g>
<!-- dot_bash_login&#45;&gt;bash_running -->
<g id="edge9" class="edge">
<title>dot_bash_login&#45;&gt;bash_running</title>
<path fill="none" stroke="red" d="M364.11,-215.94C361.29,-196.99 363.15,-166.14 376.71,-144 385.74,-129.24 400.58,-117.35 415.25,-108.6"/>
<polygon fill="red" stroke="red" points="416.92,-111.67 423.98,-103.78 413.53,-105.55 416.92,-111.67"/>
</g>
<!-- dot_bash_login&#45;&gt;bash_running -->
<g id="edge43" class="edge">
<title>dot_bash_login&#45;&gt;bash_running</title>
<path fill="none" stroke="purple" d="M377.24,-215.6C379.31,-196.62 381.23,-166.01 394.71,-144 402.58,-131.14 414.85,-120.46 426.63,-112.14"/>
<polygon fill="purple" stroke="purple" points="428.23,-115.27 434.61,-106.81 424.35,-109.45 428.23,-115.27"/>
</g>
<!-- dot_bash_login&#45;&gt;bash_env -->
<g id="edge20" class="edge">
<title>dot_bash_login&#45;&gt;bash_env</title>
<path fill="none" stroke="orange" d="M386.48,-216.41C396.99,-207.15 411.32,-195.48 424.5,-185.41"/>
<polygon fill="orange" stroke="orange" points="426.28,-188.46 432.18,-179.66 422.08,-182.86 426.28,-188.46"/>
</g>
<!-- dot_bash_login&#45;&gt;bash_env -->
<g id="edge54" class="edge">
<title>dot_bash_login&#45;&gt;bash_env</title>
<path fill="none" stroke="black" d="M396.73,-217.46C408.79,-208.61 423.08,-197.31 434.96,-187.3"/>
<polygon fill="black" stroke="black" points="437.05,-190.12 442.36,-180.95 432.49,-184.81 437.05,-190.12"/>
</g>
<!-- dot_profile&#45;&gt;bash_running -->
<g id="edge10" class="edge">
<title>dot_profile&#45;&gt;bash_running</title>
<path fill="none" stroke="red" d="M261.52,-216.65C283.28,-198.33 324.15,-168.04 360.71,-144 379.13,-131.88 400.32,-119.21 418.39,-109.3"/>
<polygon fill="red" stroke="red" points="419.86,-112.49 427.02,-104.67 416.55,-106.32 419.86,-112.49"/>
</g>
<!-- dot_profile&#45;&gt;bash_running -->
<g id="edge44" class="edge">
<title>dot_profile&#45;&gt;bash_running</title>
<path fill="none" stroke="purple" d="M271.78,-218.59C298.32,-200.52 340.83,-168.91 378.71,-144 395.22,-133.14 413.96,-121.83 429.26,-112.47"/>
<polygon fill="purple" stroke="purple" points="430.79,-115.63 437.47,-107.41 427.12,-109.67 430.79,-115.63"/>
</g>
<!-- dot_profile&#45;&gt;sh_running -->
<g id="edge95" class="edge">
<title>dot_profile&#45;&gt;sh_running</title>
<path fill="none" stroke="red" stroke-dasharray="5,2" d="M237.78,-215.87C229.16,-191.88 217.73,-147.99 212.33,-119.16"/>
<polygon fill="red" stroke="red" points="215.85,-118.96 210.73,-109.68 208.95,-120.13 215.85,-118.96"/>
</g>
<!-- dot_profile&#45;&gt;sh_running -->
<g id="edge99" class="edge">
<title>dot_profile&#45;&gt;sh_running</title>
<path fill="none" stroke="orange" stroke-dasharray="5,2" d="M246.91,-215.59C243.3,-191.4 232.42,-147.36 223.19,-118.65"/>
<polygon fill="orange" stroke="orange" points="226.63,-117.9 220.11,-109.54 220,-120.14 226.63,-117.9"/>
</g>
<!-- dot_profile&#45;&gt;env -->
<g id="edge94" class="edge">
<title>dot_profile&#45;&gt;env</title>
<path fill="none" stroke="red" stroke-dasharray="5,2" d="M230.01,-216.76C220.66,-207.68 208.85,-196.19 198.54,-186.18"/>
<polygon fill="red" stroke="red" points="201.02,-183.71 191.41,-179.24 196.14,-188.72 201.02,-183.71"/>
</g>
<!-- dot_profile&#45;&gt;bash_env -->
<g id="edge21" class="edge">
<title>dot_profile&#45;&gt;bash_env</title>
<path fill="none" stroke="orange" d="M278.37,-220.81C311.71,-209.21 364.6,-191.68 404.56,-178.97"/>
<polygon fill="orange" stroke="orange" points="405.54,-182.34 414.01,-175.98 403.42,-175.66 405.54,-182.34"/>
</g>
<!-- dot_profile&#45;&gt;bash_env -->
<g id="edge55" class="edge">
<title>dot_profile&#45;&gt;bash_env</title>
<path fill="none" stroke="black" d="M282.94,-222.67C318.42,-211.62 372.46,-193.88 411.31,-180.61"/>
<polygon fill="black" stroke="black" points="412.08,-184.05 420.4,-177.49 409.81,-177.43 412.08,-184.05"/>
</g>
<!-- etc_bashrc&#45;&gt;dot_bash_profile -->
<g id="edge39" class="edge">
<title>etc_bashrc&#45;&gt;dot_bash_profile</title>
<path fill="none" stroke="purple" d="M551.3,-288.05C546.38,-280.06 540.41,-270.33 534.92,-261.4"/>
<polygon fill="purple" stroke="purple" points="538.03,-259.77 529.81,-253.08 532.06,-263.43 538.03,-259.77"/>
</g>
<!-- etc_bashrc&#45;&gt;dot_bash_login -->
<g id="edge40" class="edge">
<title>etc_bashrc&#45;&gt;dot_bash_login</title>
<path fill="none" stroke="purple" d="M522.8,-290.67C492.85,-279.63 451.32,-264.33 419.38,-252.56"/>
<polygon fill="purple" stroke="purple" points="420.96,-249.42 410.37,-249.24 418.54,-255.98 420.96,-249.42"/>
</g>
<!-- etc_bashrc&#45;&gt;dot_profile -->
<g id="edge41" class="edge">
<title>etc_bashrc&#45;&gt;dot_profile</title>
<path fill="none" stroke="purple" d="M504.54,-295.17C451.4,-285.62 370.21,-269.94 300.71,-252 297.77,-251.24 294.76,-250.42 291.74,-249.56"/>
<polygon fill="purple" stroke="purple" points="292.86,-246.25 282.28,-246.76 290.88,-252.96 292.86,-246.25"/>
</g>
<!-- dot_bashrc -->
<g id="node25" class="node">
<title>dot_bashrc</title>
<ellipse fill="none" stroke="black" cx="648.71" cy="-234" rx="45.21" ry="18"/>
<text text-anchor="middle" x="648.71" y="-228.95" font-family="Times,serif" font-size="14.00">~/.bashrc</text>
</g>
<!-- etc_bashrc&#45;&gt;dot_bashrc -->
<g id="edge28" class="edge">
<title>etc_bashrc&#45;&gt;dot_bashrc</title>
<path fill="none" stroke="green" d="M576.89,-288.05C587.73,-278.52 602.5,-266.53 615.89,-256.35"/>
<polygon fill="green" stroke="green" points="617.74,-259.34 623.67,-250.56 613.56,-253.73 617.74,-259.34"/>
</g>
<!-- etc_bashrc&#45;&gt;dot_bashrc -->
<g id="edge61" class="edge">
<title>etc_bashrc&#45;&gt;dot_bashrc</title>
<path fill="none" stroke="grey" d="M587.21,-289.12C599.43,-280.12 613.86,-268.68 625.74,-258.65"/>
<polygon fill="grey" stroke="grey" points="627.82,-261.48 633.1,-252.3 623.24,-256.18 627.82,-261.48"/>
</g>
<!-- dot_zshenv -->
<g id="node30" class="node">
<title>dot_zshenv</title>
<ellipse fill="none" stroke="black" cx="808.71" cy="-378" rx="46.75" ry="18"/>
<text text-anchor="middle" x="808.71" y="-372.95" font-family="Times,serif" font-size="14.00">~/.zshenv</text>
</g>
<!-- etc_zshenv&#45;&gt;dot_zshenv -->
<g id="edge66" class="edge">
<title>etc_zshenv&#45;&gt;dot_zshenv</title>
<path fill="none" stroke="red" d="M791.3,-432.76C788.66,-424.9 787.85,-415.24 788.9,-406.29"/>
<polygon fill="red" stroke="red" points="792.3,-407.14 791.01,-396.63 785.46,-405.65 792.3,-407.14"/>
</g>
<!-- etc_zshenv&#45;&gt;dot_zshenv -->
<g id="edge75" class="edge">
<title>etc_zshenv&#45;&gt;dot_zshenv</title>
<path fill="none" stroke="orange" d="M802.79,-431.7C802.04,-424.41 801.79,-415.73 802.06,-407.54"/>
<polygon fill="orange" stroke="orange" points="805.55,-407.82 802.71,-397.61 798.56,-407.36 805.55,-407.82"/>
</g>
<!-- etc_zshenv&#45;&gt;dot_zshenv -->
<g id="edge83" class="edge">
<title>etc_zshenv&#45;&gt;dot_zshenv</title>
<path fill="none" stroke="green" d="M814.62,-431.7C815.37,-424.41 815.62,-415.73 815.35,-407.54"/>
<polygon fill="green" stroke="green" points="818.85,-407.36 814.7,-397.61 811.86,-407.82 818.85,-407.36"/>
</g>
<!-- etc_zshenv&#45;&gt;dot_zshenv -->
<g id="edge89" class="edge">
<title>etc_zshenv&#45;&gt;dot_zshenv</title>
<path fill="none" stroke="blue" d="M826.11,-432.76C828.75,-424.9 829.56,-415.24 828.51,-406.29"/>
<polygon fill="blue" stroke="blue" points="831.95,-405.65 826.4,-396.63 825.12,-407.14 831.95,-405.65"/>
</g>
<!-- dot_bashrc&#45;&gt;bash_running -->
<g id="edge29" class="edge">
<title>dot_bashrc&#45;&gt;bash_running</title>
<path fill="none" stroke="green" d="M629.03,-217.47C609.54,-198.55 579.17,-166.35 548.71,-144 531.36,-131.28 510.57,-119.67 493.26,-110.59"/>
<polygon fill="green" stroke="green" points="495.35,-107.73 484.86,-106.24 492.13,-113.95 495.35,-107.73"/>
</g>
<!-- dot_bashrc&#45;&gt;bash_running -->
<g id="edge62" class="edge">
<title>dot_bashrc&#45;&gt;bash_running</title>
<path fill="none" stroke="grey" d="M640.65,-216.12C626.12,-197.05 596.46,-165.83 566.71,-144 547.3,-129.76 523.58,-116.93 503.21,-107.46"/>
<polygon fill="grey" stroke="grey" points="504.85,-104.35 494.29,-103.44 501.97,-110.74 504.85,-104.35"/>
</g>
<!-- dot_zlogin -->
<g id="node26" class="node">
<title>dot_zlogin</title>
<ellipse fill="none" stroke="black" cx="853.71" cy="-234" rx="44.19" ry="18"/>
<text text-anchor="middle" x="853.71" y="-228.95" font-family="Times,serif" font-size="14.00">~/.zlogin</text>
</g>
<!-- dot_zlogin&#45;&gt;zsh_running -->
<g id="edge70" class="edge">
<title>dot_zlogin&#45;&gt;zsh_running</title>
<path fill="none" stroke="red" d="M856.69,-215.7C859.94,-207.78 864.64,-198.23 869.54,-189.44"/>
<polygon fill="red" stroke="red" points="872.49,-191.32 874.55,-180.93 866.46,-187.77 872.49,-191.32"/>
</g>
<!-- dot_zlogin&#45;&gt;zsh_running -->
<g id="edge78" class="edge">
<title>dot_zlogin&#45;&gt;zsh_running</title>
<path fill="none" stroke="orange" d="M867.86,-216.76C872.75,-208.95 877.95,-199.37 882.18,-190.48"/>
<polygon fill="orange" stroke="orange" points="885.31,-192.07 886.18,-181.51 878.91,-189.22 885.31,-192.07"/>
</g>
<!-- dot_zprofile -->
<g id="node28" class="node">
<title>dot_zprofile</title>
<ellipse fill="none" stroke="black" cx="802.71" cy="-306" rx="49.82" ry="18"/>
<text text-anchor="middle" x="802.71" y="-300.95" font-family="Times,serif" font-size="14.00">~/.zprofile</text>
</g>
<!-- dot_zprofile&#45;&gt;dot_zlogin -->
<g id="edge77" class="edge">
<title>dot_zprofile&#45;&gt;dot_zlogin</title>
<path fill="none" stroke="orange" d="M814.79,-288.41C820.83,-280.13 828.26,-269.92 835.01,-260.66"/>
<polygon fill="orange" stroke="orange" points="837.76,-262.84 840.81,-252.69 832.1,-258.71 837.76,-262.84"/>
</g>
<!-- dot_zshrc -->
<g id="node29" class="node">
<title>dot_zshrc</title>
<ellipse fill="none" stroke="black" cx="910.71" cy="-306" rx="40.6" ry="18"/>
<text text-anchor="middle" x="910.71" y="-300.95" font-family="Times,serif" font-size="14.00">~/.zshrc</text>
</g>
<!-- dot_zprofile&#45;&gt;dot_zshrc -->
<g id="edge68" class="edge">
<title>dot_zprofile&#45;&gt;dot_zshrc</title>
<path fill="none" stroke="red" d="M852.91,-306C854.65,-306 856.39,-306 858.13,-306"/>
<polygon fill="red" stroke="red" points="858.1,-309.5 868.1,-306 858.1,-302.5 858.1,-309.5"/>
</g>
<!-- dot_zshrc&#45;&gt;zsh_running -->
<g id="edge85" class="edge">
<title>dot_zshrc&#45;&gt;zsh_running</title>
<path fill="none" stroke="green" d="M911.27,-287.79C911.56,-269.75 911.13,-240.66 906.71,-216 905.2,-207.6 902.7,-198.68 900.09,-190.61"/>
<polygon fill="green" stroke="green" points="903.46,-189.64 896.89,-181.32 896.84,-191.92 903.46,-189.64"/>
</g>
<!-- dot_zshrc&#45;&gt;dot_zlogin -->
<g id="edge69" class="edge">
<title>dot_zshrc&#45;&gt;dot_zlogin</title>
<path fill="none" stroke="red" d="M897.49,-288.76C890.51,-280.19 881.79,-269.49 873.98,-259.9"/>
<polygon fill="red" stroke="red" points="876.84,-257.87 867.81,-252.32 871.41,-262.29 876.84,-257.87"/>
</g>
<!-- dot_zshenv&#45;&gt;zsh_running -->
<g id="edge90" class="edge">
<title>dot_zshenv&#45;&gt;zsh_running</title>
<path fill="none" stroke="blue" d="M854.97,-374.57C890.33,-370 936.91,-357.49 960.71,-324 991.89,-280.11 946.48,-220.34 915.16,-187.36"/>
<polygon fill="blue" stroke="blue" points="917.72,-184.97 908.23,-180.27 912.72,-189.87 917.72,-184.97"/>
</g>
<!-- dot_zshenv&#45;&gt;dot_zprofile -->
<g id="edge67" class="edge">
<title>dot_zshenv&#45;&gt;dot_zprofile</title>
<path fill="none" stroke="red" d="M801.37,-360.05C799.96,-352.68 798.95,-343.84 798.5,-335.51"/>
<polygon fill="red" stroke="red" points="802.01,-335.71 798.3,-325.79 795.01,-335.86 802.01,-335.71"/>
</g>
<!-- dot_zshenv&#45;&gt;dot_zprofile -->
<g id="edge76" class="edge">
<title>dot_zshenv&#45;&gt;dot_zprofile</title>
<path fill="none" stroke="orange" d="M813.14,-359.7C813.27,-352.32 812.75,-343.52 811.76,-335.25"/>
<polygon fill="orange" stroke="orange" points="815.26,-334.96 810.29,-325.6 808.34,-336.01 815.26,-334.96"/>
</g>
<!-- dot_zshenv&#45;&gt;dot_zshrc -->
<g id="edge84" class="edge">
<title>dot_zshenv&#45;&gt;dot_zshrc</title>
<path fill="none" stroke="green" d="M830.84,-361.81C845.2,-351.95 864.12,-338.97 879.94,-328.12"/>
<polygon fill="green" stroke="green" points="881.8,-331.08 888.07,-322.54 877.84,-325.31 881.8,-331.08"/>
</g>
<!-- env&#45;&gt;sh_running -->
<g id="edge103" class="edge">
<title>env&#45;&gt;sh_running</title>
<path fill="none" stroke="green" stroke-dasharray="5,2" d="M183.24,-144.41C187.3,-136.51 192.27,-126.85 196.85,-117.94"/>
<polygon fill="green" stroke="green" points="199.83,-119.8 201.29,-109.3 193.61,-116.59 199.83,-119.8"/>
</g>
<!-- bash_env&#45;&gt;bash_running -->
<g id="edge22" class="edge">
<title>bash_env&#45;&gt;bash_running</title>
<path fill="none" stroke="orange" d="M452.79,-143.7C452.04,-136.41 451.79,-127.73 452.06,-119.54"/>
<polygon fill="orange" stroke="orange" points="455.55,-119.82 452.71,-109.61 448.56,-119.36 455.55,-119.82"/>
</g>
<!-- bash_env&#45;&gt;bash_running -->
<g id="edge56" class="edge">
<title>bash_env&#45;&gt;bash_running</title>
<path fill="none" stroke="black" d="M464.62,-143.7C465.37,-136.41 465.62,-127.73 465.35,-119.54"/>
<polygon fill="black" stroke="black" points="468.85,-119.36 464.7,-109.61 461.86,-119.82 468.85,-119.36"/>
</g>
<!-- bash -->
<g id="node33" class="node">
<title>bash</title>
<ellipse fill="none" stroke="black" cx="561.71" cy="-687.98" rx="27.81" ry="18"/>
<text text-anchor="middle" x="561.71" y="-682.93" font-family="Times,serif" font-size="14.00">bash</text>
</g>
<!-- bash&#45;&gt;bash_remote -->
<g id="edge34" class="edge">
<title>bash&#45;&gt;bash_remote</title>
<path fill="none" stroke="purple" d="M536.86,-679.36C511.23,-669.59 471.51,-652.06 439.04,-636.58"/>
<polygon fill="purple" stroke="purple" points="440.67,-633.48 430.15,-632.3 437.64,-639.79 440.67,-633.48"/>
</g>
<!-- bash&#45;&gt;bash_remote -->
<g id="edge46" class="edge">
<title>bash&#45;&gt;bash_remote</title>
<path fill="none" stroke="black" d="M539.42,-676.73C516.55,-666.2 479.92,-649.35 448.16,-634.73"/>
<polygon fill="black" stroke="black" points="449.96,-631.71 439.41,-630.71 447.03,-638.07 449.96,-631.71"/>
</g>
<!-- bash&#45;&gt;bash_remote -->
<g id="edge57" class="edge">
<title>bash&#45;&gt;bash_remote</title>
<path fill="none" stroke="grey" d="M543.66,-673.97C522.92,-662.96 488.71,-646.82 457.29,-633.04"/>
<polygon fill="grey" stroke="grey" points="458.72,-629.84 448.15,-629.06 455.93,-636.26 458.72,-629.84"/>
</g>
<!-- bash&#45;&gt;bash_local -->
<g id="edge1" class="edge">
<title>bash&#45;&gt;bash_local</title>
<path fill="none" stroke="red" d="M545.91,-672.88C541.55,-662.01 540.39,-646.65 542.43,-633.39"/>
<polygon fill="red" stroke="red" points="545.77,-634.46 544.69,-623.92 538.96,-632.84 545.77,-634.46"/>
</g>
<!-- bash&#45;&gt;bash_local -->
<g id="edge12" class="edge">
<title>bash&#45;&gt;bash_local</title>
<path fill="none" stroke="orange" d="M556.11,-670.2C554.97,-659.92 554.67,-646.48 555.22,-634.55"/>
<polygon fill="orange" stroke="orange" points="558.7,-635.05 555.94,-624.82 551.72,-634.53 558.7,-635.05"/>
</g>
<!-- bash&#45;&gt;bash_local -->
<g id="edge24" class="edge">
<title>bash&#45;&gt;bash_local</title>
<path fill="none" stroke="green" d="M567.3,-670.2C568.44,-659.92 568.74,-646.48 568.19,-634.55"/>
<polygon fill="green" stroke="green" points="571.7,-634.53 567.47,-624.82 564.72,-635.05 571.7,-634.53"/>
</g>
<!-- bash&#45;&gt;bash_local -->
<g id="edge30" class="edge">
<title>bash&#45;&gt;bash_local</title>
<path fill="none" stroke="blue" d="M577.51,-672.88C581.86,-662.01 583.02,-646.65 580.98,-633.39"/>
<polygon fill="blue" stroke="blue" points="584.45,-632.84 578.73,-623.92 577.64,-634.46 584.45,-632.84"/>
</g>
<!-- zsh -->
<g id="node34" class="node">
<title>zsh</title>
<ellipse fill="none" stroke="black" cx="743.71" cy="-687.98" rx="27" ry="18"/>
<text text-anchor="middle" x="743.71" y="-682.93" font-family="Times,serif" font-size="14.00">zsh</text>
</g>
<!-- zsh&#45;&gt;zsh_login -->
<g id="edge63" class="edge">
<title>zsh&#45;&gt;zsh_login</title>
<path fill="none" stroke="red" d="M729.72,-672.13C722.1,-661.35 713.11,-646.46 706.26,-633.54"/>
<polygon fill="red" stroke="red" points="709.4,-631.99 701.77,-624.63 703.15,-635.14 709.4,-631.99"/>
</g>
<!-- zsh&#45;&gt;zsh_login -->
<g id="edge72" class="edge">
<title>zsh&#45;&gt;zsh_login</title>
<path fill="none" stroke="orange" d="M739.37,-669.81C734.01,-658.45 725.48,-643.38 717.34,-630.73"/>
<polygon fill="orange" stroke="orange" points="720.28,-628.84 711.8,-622.49 714.47,-632.74 720.28,-628.84"/>
</g>
<!-- zsh&#45;&gt;zsh_non_login -->
<g id="edge80" class="edge">
<title>zsh&#45;&gt;zsh_non_login</title>
<path fill="none" stroke="green" d="M748.25,-669.81C753.61,-658.74 762.02,-644.15 770.13,-631.72"/>
<polygon fill="green" stroke="green" points="772.93,-633.81 775.64,-623.57 767.14,-629.89 772.93,-633.81"/>
</g>
<!-- zsh&#45;&gt;zsh_non_login -->
<g id="edge86" class="edge">
<title>zsh&#45;&gt;zsh_non_login</title>
<path fill="none" stroke="blue" d="M757.87,-672.13C765.7,-661.25 774.99,-646.17 782.02,-633.15"/>
<polygon fill="blue" stroke="blue" points="784.95,-635.12 786.41,-624.63 778.72,-631.91 784.95,-635.12"/>
</g>
<!-- sh -->
<g id="node35" class="node">
<title>sh</title>
<ellipse fill="none" stroke="black" cx="134.71" cy="-450" rx="27" ry="18"/>
<text text-anchor="middle" x="134.71" y="-444.95" font-family="Times,serif" font-size="14.00">sh</text>
</g>
<!-- sh&#45;&gt;sh_login -->
<g id="edge91" class="edge">
<title>sh&#45;&gt;sh_login</title>
<path fill="none" stroke="red" stroke-dasharray="5,2" d="M140.2,-432.05C145.21,-423.19 152.41,-412.21 159.49,-402.53"/>
<polygon fill="red" stroke="red" points="162.24,-404.7 165.52,-394.63 156.67,-400.45 162.24,-404.7"/>
</g>
<!-- sh&#45;&gt;sh_login -->
<g id="edge96" class="edge">
<title>sh&#45;&gt;sh_login</title>
<path fill="none" stroke="orange" stroke-dasharray="5,2" d="M149.77,-434.83C156.44,-426.53 164.01,-415.77 170.22,-405.92"/>
<polygon fill="orange" stroke="orange" points="173.18,-407.78 175.33,-397.41 167.18,-404.18 173.18,-407.78"/>
</g>
<!-- sh&#45;&gt;sh_non_login -->
<g id="edge100" class="edge">
<title>sh&#45;&gt;sh_non_login</title>
<path fill="none" stroke="green" stroke-dasharray="5,2" d="M119.44,-434.83C112.66,-426.53 104.93,-415.77 98.57,-405.92"/>
<polygon fill="green" stroke="green" points="101.56,-404.09 93.34,-397.4 95.6,-407.75 101.56,-404.09"/>
</g>
<!-- sh&#45;&gt;sh_non_login -->
<g id="edge104" class="edge">
<title>sh&#45;&gt;sh_non_login</title>
<path fill="none" stroke="blue" stroke-dasharray="5,2" d="M128.96,-432.05C124.04,-423.56 117.07,-413.11 110.15,-403.73"/>
<polygon fill="blue" stroke="blue" points="113.1,-401.83 104.24,-396.03 107.55,-406.09 113.1,-401.83"/>
</g>
</g>
</svg>
