<?xml version="1.0" encoding="UTF-8" standalone="no"?>
<!DOCTYPE svg PUBLIC "-//W3C//DTD SVG 1.1//EN"
 "http://www.w3.org/Graphics/SVG/1.1/DTD/svg11.dtd">
<!-- Generated by graphviz version 12.2.1 (0)
 -->
<!-- Pages: 1 -->
<svg width="965pt" height="620pt"
 viewBox="0.00 0.00 964.69 620.00" xmlns="http://www.w3.org/2000/svg" xmlns:xlink="http://www.w3.org/1999/xlink">
<g id="graph0" class="graph" transform="scale(1 1) rotate(0) translate(4 616)">
<polygon fill="white" stroke="none" points="-4,4 -4,-616 960.69,-616 960.69,4 -4,4"/>
<!-- bash_login -->
<g id="node1" class="node">
<title>bash_login</title>
<ellipse fill="none" stroke="black" cx="280.98" cy="-522" rx="29.86" ry="18"/>
<text text-anchor="middle" x="280.98" y="-516.95" font-family="Times,serif" font-size="14.00">login</text>
</g>
<!-- bash_interactive -->
<g id="node3" class="node">
<title>bash_interactive</title>
<ellipse fill="none" stroke="black" cx="185.98" cy="-450" rx="49.82" ry="18"/>
<text text-anchor="middle" x="185.98" y="-444.95" font-family="Times,serif" font-size="14.00">interactive</text>
</g>
<!-- bash_login&#45;&gt;bash_interactive -->
<g id="edge2" class="edge">
<title>bash_login&#45;&gt;bash_interactive</title>
<path fill="none" stroke="red" d="M262.66,-507.5C249.54,-497.83 231.55,-484.58 216.3,-473.34"/>
<polygon fill="red" stroke="red" points="218.57,-470.67 208.45,-467.55 214.42,-476.3 218.57,-470.67"/>
</g>
<!-- bash_non_interactive -->
<g id="node4" class="node">
<title>bash_non_interactive</title>
<ellipse fill="none" stroke="black" cx="320.98" cy="-450" rx="66.71" ry="18"/>
<text text-anchor="middle" x="320.98" y="-444.95" font-family="Times,serif" font-size="14.00">non&#45;interactive</text>
</g>
<!-- bash_login&#45;&gt;bash_non_interactive -->
<g id="edge12" class="edge">
<title>bash_login&#45;&gt;bash_non_interactive</title>
<path fill="none" stroke="orange" d="M290.26,-504.76C294.82,-496.78 300.44,-486.95 305.62,-477.89"/>
<polygon fill="orange" stroke="orange" points="308.52,-479.86 310.45,-469.44 302.44,-476.38 308.52,-479.86"/>
</g>
<!-- bash_non_login -->
<g id="node2" class="node">
<title>bash_non_login</title>
<ellipse fill="none" stroke="black" cx="185.98" cy="-522" rx="46.75" ry="18"/>
<text text-anchor="middle" x="185.98" y="-516.95" font-family="Times,serif" font-size="14.00">non&#45;login</text>
</g>
<!-- bash_non_login&#45;&gt;bash_interactive -->
<g id="edge23" class="edge">
<title>bash_non_login&#45;&gt;bash_interactive</title>
<path fill="none" stroke="green" d="M185.98,-503.7C185.98,-496.41 185.98,-487.73 185.98,-479.54"/>
<polygon fill="green" stroke="green" points="189.48,-479.62 185.98,-469.62 182.48,-479.62 189.48,-479.62"/>
</g>
<!-- bash_non_login&#45;&gt;bash_non_interactive -->
<g id="edge28" class="edge">
<title>bash_non_login&#45;&gt;bash_non_interactive</title>
<path fill="none" stroke="blue" d="M212.98,-507C232.51,-496.88 259.21,-483.03 281.18,-471.64"/>
<polygon fill="blue" stroke="blue" points="282.61,-474.84 289.87,-467.13 279.39,-468.63 282.61,-474.84"/>
</g>
<!-- etc_profile -->
<g id="node17" class="node">
<title>etc_profile</title>
<ellipse fill="none" stroke="black" cx="320.98" cy="-378" rx="51.35" ry="18"/>
<text text-anchor="middle" x="320.98" y="-372.95" font-family="Times,serif" font-size="14.00">/etc/profile</text>
</g>
<!-- bash_interactive&#45;&gt;etc_profile -->
<g id="edge3" class="edge">
<title>bash_interactive&#45;&gt;etc_profile</title>
<path fill="none" stroke="red" d="M213.63,-434.67C233.74,-424.24 261.2,-410 283.32,-398.53"/>
<polygon fill="red" stroke="red" points="284.76,-401.72 292.03,-394.01 281.54,-395.51 284.76,-401.72"/>
</g>
<!-- etc_bashrc -->
<g id="node21" class="node">
<title>etc_bashrc</title>
<ellipse fill="none" stroke="black" cx="167.98" cy="-378" rx="70.29" ry="18"/>
<text text-anchor="middle" x="167.98" y="-372.95" font-family="Times,serif" font-size="14.00">/etc/bash.bashrc</text>
</g>
<!-- bash_interactive&#45;&gt;etc_bashrc -->
<g id="edge24" class="edge">
<title>bash_interactive&#45;&gt;etc_bashrc</title>
<path fill="none" stroke="green" d="M181.53,-431.7C179.64,-424.32 177.37,-415.52 175.25,-407.25"/>
<polygon fill="green" stroke="green" points="178.64,-406.38 172.76,-397.57 171.86,-408.13 178.64,-406.38"/>
</g>
<!-- bash_non_interactive&#45;&gt;etc_profile -->
<g id="edge13" class="edge">
<title>bash_non_interactive&#45;&gt;etc_profile</title>
<path fill="none" stroke="orange" d="M320.98,-431.7C320.98,-424.41 320.98,-415.73 320.98,-407.54"/>
<polygon fill="orange" stroke="orange" points="324.48,-407.62 320.98,-397.62 317.48,-407.62 324.48,-407.62"/>
</g>
<!-- bash_env -->
<g id="node31" class="node">
<title>bash_env</title>
<ellipse fill="none" stroke="black" cx="320.98" cy="-234" rx="63.63" ry="18"/>
<text text-anchor="middle" x="320.98" y="-228.95" font-family="Times,serif" font-size="14.00">$BASH_ENV</text>
</g>
<!-- bash_non_interactive&#45;&gt;bash_env -->
<g id="edge29" class="edge">
<title>bash_non_interactive&#45;&gt;bash_env</title>
<path fill="none" stroke="blue" d="M345.7,-432.87C358.1,-423.53 372.3,-410.72 380.98,-396 397.64,-367.77 393.4,-356.58 396.98,-324 398.73,-308.1 404.38,-302.19 396.98,-288 389.87,-274.36 377.46,-263.52 364.71,-255.28"/>
<polygon fill="blue" stroke="blue" points="366.66,-252.37 356.28,-250.27 363.08,-258.39 366.66,-252.37"/>
</g>
<!-- bash_remote_shell -->
<g id="node5" class="node">
<title>bash_remote_shell</title>
<ellipse fill="none" stroke="black" cx="56.98" cy="-522" rx="56.98" ry="18"/>
<text text-anchor="middle" x="56.98" y="-516.95" font-family="Times,serif" font-size="14.00">remote shell</text>
</g>
<!-- dot_bashrc -->
<g id="node24" class="node">
<title>dot_bashrc</title>
<ellipse fill="none" stroke="black" cx="48.98" cy="-306" rx="45.21" ry="18"/>
<text text-anchor="middle" x="48.98" y="-300.95" font-family="Times,serif" font-size="14.00">~/.bashrc</text>
</g>
<!-- bash_remote_shell&#45;&gt;dot_bashrc -->
<g id="edge31" class="edge">
<title>bash_remote_shell&#45;&gt;dot_bashrc</title>
<path fill="none" stroke="purple" d="M56.34,-503.85C54.97,-467.14 51.73,-380.66 50.05,-335.53"/>
<polygon fill="purple" stroke="purple" points="53.55,-335.61 49.68,-325.74 46.56,-335.87 53.55,-335.61"/>
</g>
<!-- sh_login -->
<g id="node6" class="node">
<title>sh_login</title>
<ellipse fill="none" stroke="black" cx="513.98" cy="-450" rx="29.86" ry="18"/>
<text text-anchor="middle" x="513.98" y="-444.95" font-family="Times,serif" font-size="14.00">login</text>
</g>
<!-- sh_interactive -->
<g id="node8" class="node">
<title>sh_interactive</title>
<ellipse fill="none" stroke="black" cx="493.98" cy="-378" rx="49.82" ry="18"/>
<text text-anchor="middle" x="493.98" y="-372.95" font-family="Times,serif" font-size="14.00">interactive</text>
</g>
<!-- sh_login&#45;&gt;sh_interactive -->
<g id="edge62" class="edge">
<title>sh_login&#45;&gt;sh_interactive</title>
<path fill="none" stroke="red" stroke-dasharray="5,2" d="M509.14,-432.05C507.01,-424.6 504.45,-415.64 502.05,-407.22"/>
<polygon fill="red" stroke="red" points="505.45,-406.38 499.33,-397.73 498.71,-408.31 505.45,-406.38"/>
</g>
<!-- sh_non_interactive -->
<g id="node9" class="node">
<title>sh_non_interactive</title>
<ellipse fill="none" stroke="black" cx="628.98" cy="-378" rx="66.71" ry="18"/>
<text text-anchor="middle" x="628.98" y="-372.95" font-family="Times,serif" font-size="14.00">non&#45;interactive</text>
</g>
<!-- sh_login&#45;&gt;sh_non_interactive -->
<g id="edge67" class="edge">
<title>sh_login&#45;&gt;sh_non_interactive</title>
<path fill="none" stroke="orange" stroke-dasharray="5,2" d="M534.54,-436.49C550.83,-426.57 573.97,-412.49 593.26,-400.74"/>
<polygon fill="orange" stroke="orange" points="594.93,-403.82 601.66,-395.63 591.29,-397.84 594.93,-403.82"/>
</g>
<!-- sh_non_login -->
<g id="node7" class="node">
<title>sh_non_login</title>
<ellipse fill="none" stroke="black" cx="608.98" cy="-450" rx="46.75" ry="18"/>
<text text-anchor="middle" x="608.98" y="-444.95" font-family="Times,serif" font-size="14.00">non&#45;login</text>
</g>
<!-- sh_non_login&#45;&gt;sh_interactive -->
<g id="edge71" class="edge">
<title>sh_non_login&#45;&gt;sh_interactive</title>
<path fill="none" stroke="green" stroke-dasharray="5,2" d="M584.87,-434.33C568.42,-424.31 546.4,-410.9 528.14,-399.8"/>
<polygon fill="green" stroke="green" points="530.11,-396.89 519.75,-394.68 526.47,-402.87 530.11,-396.89"/>
</g>
<!-- sh_non_login&#45;&gt;sh_non_interactive -->
<g id="edge75" class="edge">
<title>sh_non_login&#45;&gt;sh_non_interactive</title>
<path fill="none" stroke="blue" stroke-dasharray="5,2" d="M613.93,-431.7C616.06,-424.24 618.6,-415.32 620.99,-406.97"/>
<polygon fill="blue" stroke="blue" points="624.3,-408.14 623.68,-397.56 617.57,-406.21 624.3,-408.14"/>
</g>
<!-- dot_profile -->
<g id="node20" class="node">
<title>dot_profile</title>
<ellipse fill="none" stroke="black" cx="489.98" cy="-306" rx="45.72" ry="18"/>
<text text-anchor="middle" x="489.98" y="-300.95" font-family="Times,serif" font-size="14.00">~/.profile</text>
</g>
<!-- sh_interactive&#45;&gt;dot_profile -->
<g id="edge63" class="edge">
<title>sh_interactive&#45;&gt;dot_profile</title>
<path fill="none" stroke="red" stroke-dasharray="5,2" d="M492.99,-359.7C492.58,-352.41 492.08,-343.73 491.61,-335.54"/>
<polygon fill="red" stroke="red" points="495.11,-335.4 491.05,-325.62 488.12,-335.8 495.11,-335.4"/>
</g>
<!-- env -->
<g id="node30" class="node">
<title>env</title>
<ellipse fill="none" stroke="black" cx="560.98" cy="-234" rx="34.46" ry="18"/>
<text text-anchor="middle" x="560.98" y="-228.95" font-family="Times,serif" font-size="14.00">$ENV</text>
</g>
<!-- sh_interactive&#45;&gt;env -->
<g id="edge72" class="edge">
<title>sh_interactive&#45;&gt;env</title>
<path fill="none" stroke="green" stroke-dasharray="5,2" d="M514.16,-361.19C525,-351.6 537.61,-338.44 544.98,-324 554.54,-305.28 558.48,-281.8 560.06,-263.65"/>
<polygon fill="green" stroke="green" points="563.54,-264.06 560.7,-253.85 556.55,-263.6 563.54,-264.06"/>
</g>
<!-- sh_running -->
<g id="node15" class="node">
<title>sh_running</title>
<ellipse fill="none" stroke="black" cx="524.98" cy="-162" rx="47.26" ry="18"/>
<text text-anchor="middle" x="524.98" y="-156.95" font-family="Times,serif" font-size="14.00">running...</text>
</g>
<!-- sh_non_interactive&#45;&gt;sh_running -->
<g id="edge76" class="edge">
<title>sh_non_interactive&#45;&gt;sh_running</title>
<path fill="none" stroke="blue" stroke-dasharray="5,2" d="M630.58,-359.95C632.63,-328.76 633,-261.57 603.98,-216 594.68,-201.4 579.76,-189.87 565.37,-181.34"/>
<polygon fill="blue" stroke="blue" points="567.34,-178.43 556.89,-176.65 563.95,-184.56 567.34,-178.43"/>
</g>
<!-- sh_non_interactive&#45;&gt;dot_profile -->
<g id="edge68" class="edge">
<title>sh_non_interactive&#45;&gt;dot_profile</title>
<path fill="none" stroke="orange" stroke-dasharray="5,2" d="M598.48,-361.64C577.5,-351.08 549.53,-336.99 527.23,-325.76"/>
<polygon fill="orange" stroke="orange" points="528.98,-322.72 518.47,-321.35 525.83,-328.97 528.98,-322.72"/>
</g>
<!-- zsh_login -->
<g id="node10" class="node">
<title>zsh_login</title>
<ellipse fill="none" stroke="black" cx="774.98" cy="-522" rx="29.86" ry="18"/>
<text text-anchor="middle" x="774.98" y="-516.95" font-family="Times,serif" font-size="14.00">login</text>
</g>
<!-- zsh_interactive -->
<g id="node12" class="node">
<title>zsh_interactive</title>
<ellipse fill="none" stroke="black" cx="754.98" cy="-450" rx="49.82" ry="18"/>
<text text-anchor="middle" x="754.98" y="-444.95" font-family="Times,serif" font-size="14.00">interactive</text>
</g>
<!-- zsh_login&#45;&gt;zsh_interactive -->
<g id="edge34" class="edge">
<title>zsh_login&#45;&gt;zsh_interactive</title>
<path fill="none" stroke="red" d="M770.14,-504.05C768.01,-496.6 765.45,-487.64 763.05,-479.22"/>
<polygon fill="red" stroke="red" points="766.45,-478.38 760.33,-469.73 759.71,-480.31 766.45,-478.38"/>
</g>
<!-- zsh_non_interactive -->
<g id="node13" class="node">
<title>zsh_non_interactive</title>
<ellipse fill="none" stroke="black" cx="889.98" cy="-450" rx="66.71" ry="18"/>
<text text-anchor="middle" x="889.98" y="-444.95" font-family="Times,serif" font-size="14.00">non&#45;interactive</text>
</g>
<!-- zsh_login&#45;&gt;zsh_non_interactive -->
<g id="edge43" class="edge">
<title>zsh_login&#45;&gt;zsh_non_interactive</title>
<path fill="none" stroke="orange" d="M795.54,-508.49C811.83,-498.57 834.97,-484.49 854.26,-472.74"/>
<polygon fill="orange" stroke="orange" points="855.93,-475.82 862.66,-467.63 852.29,-469.84 855.93,-475.82"/>
</g>
<!-- zsh_non_login -->
<g id="node11" class="node">
<title>zsh_non_login</title>
<ellipse fill="none" stroke="black" cx="869.98" cy="-522" rx="46.75" ry="18"/>
<text text-anchor="middle" x="869.98" y="-516.95" font-family="Times,serif" font-size="14.00">non&#45;login</text>
</g>
<!-- zsh_non_login&#45;&gt;zsh_interactive -->
<g id="edge51" class="edge">
<title>zsh_non_login&#45;&gt;zsh_interactive</title>
<path fill="none" stroke="green" d="M845.87,-506.33C829.42,-496.31 807.4,-482.9 789.14,-471.8"/>
<polygon fill="green" stroke="green" points="791.11,-468.89 780.75,-466.68 787.47,-474.87 791.11,-468.89"/>
</g>
<!-- zsh_non_login&#45;&gt;zsh_non_interactive -->
<g id="edge57" class="edge">
<title>zsh_non_login&#45;&gt;zsh_non_interactive</title>
<path fill="none" stroke="blue" d="M874.93,-503.7C877.06,-496.24 879.6,-487.32 881.99,-478.97"/>
<polygon fill="blue" stroke="blue" points="885.3,-480.14 884.68,-469.56 878.57,-478.21 885.3,-480.14"/>
</g>
<!-- etc_zshenv -->
<g id="node22" class="node">
<title>etc_zshenv</title>
<ellipse fill="none" stroke="black" cx="817.98" cy="-378" rx="52.38" ry="18"/>
<text text-anchor="middle" x="817.98" y="-372.95" font-family="Times,serif" font-size="14.00">/etc/zshenv</text>
</g>
<!-- zsh_interactive&#45;&gt;etc_zshenv -->
<g id="edge35" class="edge">
<title>zsh_interactive&#45;&gt;etc_zshenv</title>
<path fill="none" stroke="red" d="M764.35,-432.05C771.31,-423.29 780.88,-412.45 790.07,-402.86"/>
<polygon fill="red" stroke="red" points="792.39,-405.49 796.92,-395.91 787.41,-400.58 792.39,-405.49"/>
</g>
<!-- zsh_interactive&#45;&gt;etc_zshenv -->
<g id="edge52" class="edge">
<title>zsh_interactive&#45;&gt;etc_zshenv</title>
<path fill="none" stroke="green" d="M775.04,-433.12C783.6,-424.68 793.38,-414.1 801.52,-404.55"/>
<polygon fill="green" stroke="green" points="804.1,-406.91 807.76,-396.97 798.7,-402.46 804.1,-406.91"/>
</g>
<!-- zsh_non_interactive&#45;&gt;etc_zshenv -->
<g id="edge44" class="edge">
<title>zsh_non_interactive&#45;&gt;etc_zshenv</title>
<path fill="none" stroke="orange" d="M867.48,-432.76C857.65,-424.14 846.33,-413.36 836.93,-403.73"/>
<polygon fill="orange" stroke="orange" points="839.71,-401.57 830.29,-396.73 834.63,-406.39 839.71,-401.57"/>
</g>
<!-- zsh_non_interactive&#45;&gt;etc_zshenv -->
<g id="edge58" class="edge">
<title>zsh_non_interactive&#45;&gt;etc_zshenv</title>
<path fill="none" stroke="blue" d="M878.43,-432.05C870.13,-423.05 858.78,-411.85 848.1,-402.07"/>
<polygon fill="blue" stroke="blue" points="850.66,-399.66 840.87,-395.6 845.99,-404.88 850.66,-399.66"/>
</g>
<!-- bash_running -->
<g id="node14" class="node">
<title>bash_running</title>
<ellipse fill="none" stroke="black" cx="193.98" cy="-162" rx="47.26" ry="18"/>
<text text-anchor="middle" x="193.98" y="-156.95" font-family="Times,serif" font-size="14.00">running...</text>
</g>
<!-- dot_bash_logout -->
<g id="node23" class="node">
<title>dot_bash_logout</title>
<ellipse fill="none" stroke="black" cx="193.98" cy="-90" rx="66.19" ry="18"/>
<text text-anchor="middle" x="193.98" y="-84.95" font-family="Times,serif" font-size="14.00">~/.bash_logout</text>
</g>
<!-- bash_running&#45;&gt;dot_bash_logout -->
<g id="edge10" class="edge">
<title>bash_running&#45;&gt;dot_bash_logout</title>
<path fill="none" stroke="red" d="M188.07,-143.7C187.31,-136.41 187.07,-127.73 187.33,-119.54"/>
<polygon fill="red" stroke="red" points="190.82,-119.82 187.99,-109.61 183.84,-119.36 190.82,-119.82"/>
</g>
<!-- bash_running&#45;&gt;dot_bash_logout -->
<g id="edge21" class="edge">
<title>bash_running&#45;&gt;dot_bash_logout</title>
<path fill="none" stroke="orange" d="M199.9,-143.7C200.65,-136.41 200.89,-127.73 200.63,-119.54"/>
<polygon fill="orange" stroke="orange" points="204.12,-119.36 199.98,-109.61 197.14,-119.82 204.12,-119.36"/>
</g>
<!-- zsh_running -->
<g id="node16" class="node">
<title>zsh_running</title>
<ellipse fill="none" stroke="black" cx="850.98" cy="-90" rx="47.26" ry="18"/>
<text text-anchor="middle" x="850.98" y="-84.95" font-family="Times,serif" font-size="14.00">running...</text>
</g>
<!-- dot_zlogout -->
<g id="node26" class="node">
<title>dot_zlogout</title>
<ellipse fill="none" stroke="black" cx="850.98" cy="-18" rx="48.79" ry="18"/>
<text text-anchor="middle" x="850.98" y="-12.95" font-family="Times,serif" font-size="14.00">~/.zlogout</text>
</g>
<!-- zsh_running&#45;&gt;dot_zlogout -->
<g id="edge41" class="edge">
<title>zsh_running&#45;&gt;dot_zlogout</title>
<path fill="none" stroke="red" d="M845.07,-71.7C844.31,-64.41 844.07,-55.73 844.33,-47.54"/>
<polygon fill="red" stroke="red" points="847.82,-47.82 844.99,-37.61 840.84,-47.36 847.82,-47.82"/>
</g>
<!-- zsh_running&#45;&gt;dot_zlogout -->
<g id="edge49" class="edge">
<title>zsh_running&#45;&gt;dot_zlogout</title>
<path fill="none" stroke="orange" d="M856.9,-71.7C857.65,-64.41 857.89,-55.73 857.63,-47.54"/>
<polygon fill="orange" stroke="orange" points="861.12,-47.36 856.98,-37.61 854.14,-47.82 861.12,-47.36"/>
</g>
<!-- dot_bash_profile -->
<g id="node18" class="node">
<title>dot_bash_profile</title>
<ellipse fill="none" stroke="black" cx="320.98" cy="-306" rx="67.22" ry="18"/>
<text text-anchor="middle" x="320.98" y="-300.95" font-family="Times,serif" font-size="14.00">~/.bash_profile</text>
</g>
<!-- etc_profile&#45;&gt;dot_bash_profile -->
<g id="edge4" class="edge">
<title>etc_profile&#45;&gt;dot_bash_profile</title>
<path fill="none" stroke="red" d="M315.07,-359.7C314.31,-352.41 314.07,-343.73 314.33,-335.54"/>
<polygon fill="red" stroke="red" points="317.82,-335.82 314.99,-325.61 310.84,-335.36 317.82,-335.82"/>
</g>
<!-- etc_profile&#45;&gt;dot_bash_profile -->
<g id="edge14" class="edge">
<title>etc_profile&#45;&gt;dot_bash_profile</title>
<path fill="none" stroke="orange" d="M326.9,-359.7C327.65,-352.41 327.89,-343.73 327.63,-335.54"/>
<polygon fill="orange" stroke="orange" points="331.12,-335.36 326.98,-325.61 324.14,-335.82 331.12,-335.36"/>
</g>
<!-- dot_bash_login -->
<g id="node19" class="node">
<title>dot_bash_login</title>
<ellipse fill="none" stroke="black" cx="173.98" cy="-306" rx="61.59" ry="18"/>
<text text-anchor="middle" x="173.98" y="-300.95" font-family="Times,serif" font-size="14.00">~/.bash_login</text>
</g>
<!-- etc_profile&#45;&gt;dot_bash_login -->
<g id="edge5" class="edge">
<title>etc_profile&#45;&gt;dot_bash_login</title>
<path fill="none" stroke="red" d="M287.92,-363.83C265.02,-353.62 234.64,-339.28 210.95,-327.56"/>
<polygon fill="red" stroke="red" points="212.78,-324.56 202.27,-323.23 209.65,-330.83 212.78,-324.56"/>
</g>
<!-- etc_profile&#45;&gt;dot_bash_login -->
<g id="edge15" class="edge">
<title>etc_profile&#45;&gt;dot_bash_login</title>
<path fill="none" stroke="orange" d="M295.1,-361.98C274.19,-351.4 244.41,-337.16 219.56,-325.82"/>
<polygon fill="orange" stroke="orange" points="221.19,-322.71 210.64,-321.78 218.31,-329.09 221.19,-322.71"/>
</g>
<!-- etc_profile&#45;&gt;dot_profile -->
<g id="edge6" class="edge">
<title>etc_profile&#45;&gt;dot_profile</title>
<path fill="none" stroke="red" d="M349.63,-362.83C376.14,-351.22 415.73,-334.79 446.18,-322.76"/>
<polygon fill="red" stroke="red" points="447.08,-326.17 455.12,-319.26 444.53,-319.65 447.08,-326.17"/>
</g>
<!-- etc_profile&#45;&gt;dot_profile -->
<g id="edge16" class="edge">
<title>etc_profile&#45;&gt;dot_profile</title>
<path fill="none" stroke="orange" d="M356.1,-364.65C384.15,-353.72 423.23,-337.63 452,-325.22"/>
<polygon fill="orange" stroke="orange" points="453.31,-328.47 461.08,-321.27 450.51,-322.05 453.31,-328.47"/>
</g>
<!-- dot_bash_profile&#45;&gt;bash_running -->
<g id="edge7" class="edge">
<title>dot_bash_profile&#45;&gt;bash_running</title>
<path fill="none" stroke="red" d="M293.97,-289.11C279.24,-279.58 261.35,-266.52 247.98,-252 231,-233.55 216.56,-208.95 206.9,-190.29"/>
<polygon fill="red" stroke="red" points="210.07,-188.8 202.46,-181.43 203.81,-191.94 210.07,-188.8"/>
</g>
<!-- dot_bash_profile&#45;&gt;bash_env -->
<g id="edge17" class="edge">
<title>dot_bash_profile&#45;&gt;bash_env</title>
<path fill="none" stroke="orange" d="M320.98,-287.7C320.98,-280.41 320.98,-271.73 320.98,-263.54"/>
<polygon fill="orange" stroke="orange" points="324.48,-263.62 320.98,-253.62 317.48,-263.62 324.48,-263.62"/>
</g>
<!-- dot_bash_login&#45;&gt;bash_running -->
<g id="edge8" class="edge">
<title>dot_bash_login&#45;&gt;bash_running</title>
<path fill="none" stroke="red" d="M176.43,-287.59C179.81,-263.61 185.93,-220.14 189.98,-191.42"/>
<polygon fill="red" stroke="red" points="193.43,-192 191.36,-181.61 186.5,-191.02 193.43,-192"/>
</g>
<!-- dot_bash_login&#45;&gt;bash_env -->
<g id="edge18" class="edge">
<title>dot_bash_login&#45;&gt;bash_env</title>
<path fill="none" stroke="orange" d="M205.16,-290.15C226.64,-279.92 255.45,-266.2 278.96,-255.01"/>
<polygon fill="orange" stroke="orange" points="280.45,-258.18 287.98,-250.72 277.44,-251.86 280.45,-258.18"/>
</g>
<!-- dot_profile&#45;&gt;bash_running -->
<g id="edge9" class="edge">
<title>dot_profile&#45;&gt;bash_running</title>
<path fill="none" stroke="red" d="M476.82,-288.63C459.79,-268.55 428.22,-234.85 393.98,-216 348.82,-191.14 291.45,-177.49 249.74,-170.3"/>
<polygon fill="red" stroke="red" points="250.34,-166.86 239.91,-168.69 249.21,-173.76 250.34,-166.86"/>
</g>
<!-- dot_profile&#45;&gt;sh_running -->
<g id="edge65" class="edge">
<title>dot_profile&#45;&gt;sh_running</title>
<path fill="none" stroke="red" stroke-dasharray="5,2" d="M489.66,-287.59C493.08,-263.5 503.57,-219.75 512.57,-191.03"/>
<polygon fill="red" stroke="red" points="515.89,-192.14 515.71,-181.55 509.24,-189.94 515.89,-192.14"/>
</g>
<!-- dot_profile&#45;&gt;sh_running -->
<g id="edge69" class="edge">
<title>dot_profile&#45;&gt;sh_running</title>
<path fill="none" stroke="orange" stroke-dasharray="5,2" d="M498.79,-287.87C507.2,-263.99 518.26,-220.38 523.48,-191.54"/>
<polygon fill="orange" stroke="orange" points="526.93,-192.12 525.09,-181.68 520.03,-190.99 526.93,-192.12"/>
</g>
<!-- dot_profile&#45;&gt;env -->
<g id="edge64" class="edge">
<title>dot_profile&#45;&gt;env</title>
<path fill="none" stroke="red" stroke-dasharray="5,2" d="M506.45,-288.76C515.67,-279.68 527.31,-268.19 537.47,-258.18"/>
<polygon fill="red" stroke="red" points="539.83,-260.76 544.5,-251.25 534.92,-255.78 539.83,-260.76"/>
</g>
<!-- dot_profile&#45;&gt;bash_env -->
<g id="edge19" class="edge">
<title>dot_profile&#45;&gt;bash_env</title>
<path fill="none" stroke="orange" d="M459.38,-292.32C433.37,-281.55 395.67,-265.94 366.18,-253.72"/>
<polygon fill="orange" stroke="orange" points="367.71,-250.57 357.13,-249.97 365.03,-257.03 367.71,-250.57"/>
</g>
<!-- etc_bashrc&#45;&gt;dot_bashrc -->
<g id="edge25" class="edge">
<title>etc_bashrc&#45;&gt;dot_bashrc</title>
<path fill="none" stroke="green" d="M140.68,-360.94C123.54,-350.86 101.31,-337.78 83.02,-327.02"/>
<polygon fill="green" stroke="green" points="85.03,-324.14 74.63,-322.09 81.48,-330.18 85.03,-324.14"/>
</g>
<!-- dot_zshenv -->
<g id="node29" class="node">
<title>dot_zshenv</title>
<ellipse fill="none" stroke="black" cx="817.98" cy="-306" rx="46.75" ry="18"/>
<text text-anchor="middle" x="817.98" y="-300.95" font-family="Times,serif" font-size="14.00">~/.zshenv</text>
</g>
<!-- etc_zshenv&#45;&gt;dot_zshenv -->
<g id="edge36" class="edge">
<title>etc_zshenv&#45;&gt;dot_zshenv</title>
<path fill="none" stroke="red" d="M800.58,-360.76C797.93,-352.9 797.13,-343.24 798.17,-334.29"/>
<polygon fill="red" stroke="red" points="801.57,-335.14 800.29,-324.63 794.73,-333.65 801.57,-335.14"/>
</g>
<!-- etc_zshenv&#45;&gt;dot_zshenv -->
<g id="edge45" class="edge">
<title>etc_zshenv&#45;&gt;dot_zshenv</title>
<path fill="none" stroke="orange" d="M812.07,-359.7C811.31,-352.41 811.07,-343.73 811.33,-335.54"/>
<polygon fill="orange" stroke="orange" points="814.82,-335.82 811.99,-325.61 807.84,-335.36 814.82,-335.82"/>
</g>
<!-- etc_zshenv&#45;&gt;dot_zshenv -->
<g id="edge53" class="edge">
<title>etc_zshenv&#45;&gt;dot_zshenv</title>
<path fill="none" stroke="green" d="M823.9,-359.7C824.65,-352.41 824.89,-343.73 824.63,-335.54"/>
<polygon fill="green" stroke="green" points="828.12,-335.36 823.98,-325.61 821.14,-335.82 828.12,-335.36"/>
</g>
<!-- etc_zshenv&#45;&gt;dot_zshenv -->
<g id="edge59" class="edge">
<title>etc_zshenv&#45;&gt;dot_zshenv</title>
<path fill="none" stroke="blue" d="M835.38,-360.76C838.03,-352.9 838.83,-343.24 837.79,-334.29"/>
<polygon fill="blue" stroke="blue" points="841.23,-333.65 835.68,-324.63 834.39,-335.14 841.23,-333.65"/>
</g>
<!-- dot_bashrc&#45;&gt;bash_running -->
<g id="edge26" class="edge">
<title>dot_bashrc&#45;&gt;bash_running</title>
<path fill="none" stroke="green" d="M61.37,-288.43C84.44,-263.15 133.54,-214.87 165.21,-186.14"/>
<polygon fill="green" stroke="green" points="167.4,-188.88 172.51,-179.6 162.73,-183.67 167.4,-188.88"/>
</g>
<!-- dot_bashrc&#45;&gt;bash_running -->
<g id="edge32" class="edge">
<title>dot_bashrc&#45;&gt;bash_running</title>
<path fill="none" stroke="purple" d="M69.18,-289.53C96.97,-265.06 146.13,-217.2 173.87,-187.87"/>
<polygon fill="purple" stroke="purple" points="176.13,-190.57 180.38,-180.87 171,-185.81 176.13,-190.57"/>
</g>
<!-- dot_zlogin -->
<g id="node25" class="node">
<title>dot_zlogin</title>
<ellipse fill="none" stroke="black" cx="814.98" cy="-162" rx="44.19" ry="18"/>
<text text-anchor="middle" x="814.98" y="-156.95" font-family="Times,serif" font-size="14.00">~/.zlogin</text>
</g>
<!-- dot_zlogin&#45;&gt;zsh_running -->
<g id="edge40" class="edge">
<title>dot_zlogin&#45;&gt;zsh_running</title>
<path fill="none" stroke="red" d="M817.96,-143.7C821.22,-135.78 825.91,-126.23 830.82,-117.44"/>
<polygon fill="red" stroke="red" points="833.77,-119.32 835.82,-108.93 827.74,-115.77 833.77,-119.32"/>
</g>
<!-- dot_zlogin&#45;&gt;zsh_running -->
<g id="edge48" class="edge">
<title>dot_zlogin&#45;&gt;zsh_running</title>
<path fill="none" stroke="orange" d="M829.13,-144.76C834.02,-136.95 839.22,-127.37 843.46,-118.48"/>
<polygon fill="orange" stroke="orange" points="846.58,-120.07 847.46,-109.51 840.19,-117.22 846.58,-120.07"/>
</g>
<!-- dot_zprofile -->
<g id="node27" class="node">
<title>dot_zprofile</title>
<ellipse fill="none" stroke="black" cx="763.98" cy="-234" rx="49.82" ry="18"/>
<text text-anchor="middle" x="763.98" y="-228.95" font-family="Times,serif" font-size="14.00">~/.zprofile</text>
</g>
<!-- dot_zprofile&#45;&gt;dot_zlogin -->
<g id="edge47" class="edge">
<title>dot_zprofile&#45;&gt;dot_zlogin</title>
<path fill="none" stroke="orange" d="M776.07,-216.41C782.1,-208.13 789.54,-197.92 796.28,-188.66"/>
<polygon fill="orange" stroke="orange" points="799.03,-190.84 802.09,-180.69 793.37,-186.71 799.03,-190.84"/>
</g>
<!-- dot_zshrc -->
<g id="node28" class="node">
<title>dot_zshrc</title>
<ellipse fill="none" stroke="black" cx="871.98" cy="-234" rx="40.6" ry="18"/>
<text text-anchor="middle" x="871.98" y="-228.95" font-family="Times,serif" font-size="14.00">~/.zshrc</text>
</g>
<!-- dot_zprofile&#45;&gt;dot_zshrc -->
<g id="edge38" class="edge">
<title>dot_zprofile&#45;&gt;dot_zshrc</title>
<path fill="none" stroke="red" d="M814.18,-234C815.92,-234 817.67,-234 819.41,-234"/>
<polygon fill="red" stroke="red" points="819.38,-237.5 829.38,-234 819.38,-230.5 819.38,-237.5"/>
</g>
<!-- dot_zshrc&#45;&gt;zsh_running -->
<g id="edge55" class="edge">
<title>dot_zshrc&#45;&gt;zsh_running</title>
<path fill="none" stroke="green" d="M872.55,-215.79C872.83,-197.75 872.41,-168.66 867.98,-144 866.47,-135.6 863.98,-126.68 861.36,-118.61"/>
<polygon fill="green" stroke="green" points="864.73,-117.64 858.16,-109.32 858.11,-119.92 864.73,-117.64"/>
</g>
<!-- dot_zshrc&#45;&gt;dot_zlogin -->
<g id="edge39" class="edge">
<title>dot_zshrc&#45;&gt;dot_zlogin</title>
<path fill="none" stroke="red" d="M858.76,-216.76C851.78,-208.19 843.07,-197.49 835.26,-187.9"/>
<polygon fill="red" stroke="red" points="838.11,-185.87 829.09,-180.32 832.69,-190.29 838.11,-185.87"/>
</g>
<!-- dot_zshenv&#45;&gt;zsh_running -->
<g id="edge60" class="edge">
<title>dot_zshenv&#45;&gt;zsh_running</title>
<path fill="none" stroke="blue" d="M857.45,-295.88C880.59,-288.29 907.95,-274.89 921.98,-252 950.11,-206.09 905.85,-147.08 875.55,-114.77"/>
<polygon fill="blue" stroke="blue" points="878.34,-112.62 868.87,-107.87 873.31,-117.49 878.34,-112.62"/>
</g>
<!-- dot_zshenv&#45;&gt;dot_zprofile -->
<g id="edge37" class="edge">
<title>dot_zshenv&#45;&gt;dot_zprofile</title>
<path fill="none" stroke="red" d="M799.97,-289.12C792.75,-280.97 784.66,-270.84 777.89,-261.55"/>
<polygon fill="red" stroke="red" points="780.88,-259.71 772.27,-253.53 775.14,-263.73 780.88,-259.71"/>
</g>
<!-- dot_zshenv&#45;&gt;dot_zprofile -->
<g id="edge46" class="edge">
<title>dot_zshenv&#45;&gt;dot_zprofile</title>
<path fill="none" stroke="orange" d="M810.79,-288.05C805.08,-279.47 797.11,-268.89 789.3,-259.44"/>
<polygon fill="orange" stroke="orange" points="792.09,-257.31 782.93,-251.98 786.77,-261.86 792.09,-257.31"/>
</g>
<!-- dot_zshenv&#45;&gt;dot_zshrc -->
<g id="edge54" class="edge">
<title>dot_zshenv&#45;&gt;dot_zshrc</title>
<path fill="none" stroke="green" d="M830.78,-288.41C837.23,-280.04 845.21,-269.71 852.41,-260.37"/>
<polygon fill="green" stroke="green" points="855.01,-262.72 858.35,-252.67 849.47,-258.45 855.01,-262.72"/>
</g>
<!-- env&#45;&gt;sh_running -->
<g id="edge73" class="edge">
<title>env&#45;&gt;sh_running</title>
<path fill="none" stroke="green" stroke-dasharray="5,2" d="M552.45,-216.41C548.38,-208.51 543.42,-198.85 538.83,-189.94"/>
<polygon fill="green" stroke="green" points="542.08,-188.59 534.39,-181.3 535.85,-191.8 542.08,-188.59"/>
</g>
<!-- bash_env&#45;&gt;bash_running -->
<g id="edge20" class="edge">
<title>bash_env&#45;&gt;bash_running</title>
<path fill="none" stroke="orange" d="M292.8,-217.46C274.25,-207.24 249.82,-193.77 229.88,-182.79"/>
<polygon fill="orange" stroke="orange" points="231.7,-179.79 221.25,-178.03 228.32,-185.92 231.7,-179.79"/>
</g>
<!-- bash -->
<g id="node32" class="node">
<title>bash</title>
<ellipse fill="none" stroke="black" cx="185.98" cy="-594" rx="27.81" ry="18"/>
<text text-anchor="middle" x="185.98" y="-588.95" font-family="Times,serif" font-size="14.00">bash</text>
</g>
<!-- bash&#45;&gt;bash_login -->
<g id="edge1" class="edge">
<title>bash&#45;&gt;bash_login</title>
<path fill="none" stroke="red" d="M200.49,-578.15C213.8,-567.35 233.61,-552.66 250.33,-541.16"/>
<polygon fill="red" stroke="red" points="252.16,-544.15 258.49,-535.66 248.24,-538.35 252.16,-544.15"/>
</g>
<!-- bash&#45;&gt;bash_login -->
<g id="edge11" class="edge">
<title>bash&#45;&gt;bash_login</title>
<path fill="none" stroke="orange" d="M206.36,-581.75C221.53,-571.8 242.01,-557 257.77,-544.75"/>
<polygon fill="orange" stroke="orange" points="259.58,-547.78 265.24,-538.82 255.23,-542.29 259.58,-547.78"/>
</g>
<!-- bash&#45;&gt;bash_non_login -->
<g id="edge22" class="edge">
<title>bash&#45;&gt;bash_non_login</title>
<path fill="none" stroke="green" d="M180.1,-576.05C179.32,-568.68 179.07,-559.84 179.34,-551.51"/>
<polygon fill="green" stroke="green" points="182.81,-551.99 179.97,-541.79 175.83,-551.54 182.81,-551.99"/>
</g>
<!-- bash&#45;&gt;bash_non_login -->
<g id="edge27" class="edge">
<title>bash&#45;&gt;bash_non_login</title>
<path fill="none" stroke="blue" d="M191.86,-576.05C192.64,-568.68 192.9,-559.84 192.63,-551.51"/>
<polygon fill="blue" stroke="blue" points="196.14,-551.54 191.99,-541.79 189.15,-551.99 196.14,-551.54"/>
</g>
<!-- bash&#45;&gt;bash_remote_shell -->
<g id="edge30" class="edge">
<title>bash&#45;&gt;bash_remote_shell</title>
<path fill="none" stroke="purple" d="M165.26,-581.75C146.36,-571.5 117.96,-556.09 94.99,-543.63"/>
<polygon fill="purple" stroke="purple" points="96.66,-540.55 86.21,-538.86 93.33,-546.7 96.66,-540.55"/>
</g>
<!-- zsh -->
<g id="node33" class="node">
<title>zsh</title>
<ellipse fill="none" stroke="black" cx="821.98" cy="-594" rx="27" ry="18"/>
<text text-anchor="middle" x="821.98" y="-588.95" font-family="Times,serif" font-size="14.00">zsh</text>
</g>
<!-- zsh&#45;&gt;zsh_login -->
<g id="edge33" class="edge">
<title>zsh&#45;&gt;zsh_login</title>
<path fill="none" stroke="red" d="M806.92,-578.83C800.25,-570.53 792.68,-559.77 786.47,-549.92"/>
<polygon fill="red" stroke="red" points="789.51,-548.18 781.35,-541.41 783.51,-551.78 789.51,-548.18"/>
</g>
<!-- zsh&#45;&gt;zsh_login -->
<g id="edge42" class="edge">
<title>zsh&#45;&gt;zsh_login</title>
<path fill="none" stroke="orange" d="M816.48,-576.05C811.47,-567.19 804.28,-556.21 797.2,-546.53"/>
<polygon fill="orange" stroke="orange" points="800.02,-544.45 791.17,-538.63 794.45,-548.7 800.02,-544.45"/>
</g>
<!-- zsh&#45;&gt;zsh_non_login -->
<g id="edge50" class="edge">
<title>zsh&#45;&gt;zsh_non_login</title>
<path fill="none" stroke="green" d="M827.72,-576.05C832.65,-567.56 839.61,-557.11 846.54,-547.73"/>
<polygon fill="green" stroke="green" points="849.14,-550.09 852.45,-540.03 843.58,-545.83 849.14,-550.09"/>
</g>
<!-- zsh&#45;&gt;zsh_non_login -->
<g id="edge56" class="edge">
<title>zsh&#45;&gt;zsh_non_login</title>
<path fill="none" stroke="blue" d="M837.24,-578.83C844.03,-570.53 851.76,-559.77 858.11,-549.92"/>
<polygon fill="blue" stroke="blue" points="861.09,-551.75 863.35,-541.4 855.13,-548.09 861.09,-551.75"/>
</g>
<!-- sh -->
<g id="node34" class="node">
<title>sh</title>
<ellipse fill="none" stroke="black" cx="560.98" cy="-522" rx="27" ry="18"/>
<text text-anchor="middle" x="560.98" y="-516.95" font-family="Times,serif" font-size="14.00">sh</text>
</g>
<!-- sh&#45;&gt;sh_login -->
<g id="edge61" class="edge">
<title>sh&#45;&gt;sh_login</title>
<path fill="none" stroke="red" stroke-dasharray="5,2" d="M545.92,-506.83C539.25,-498.53 531.68,-487.77 525.47,-477.92"/>
<polygon fill="red" stroke="red" points="528.51,-476.18 520.35,-469.41 522.51,-479.78 528.51,-476.18"/>
</g>
<!-- sh&#45;&gt;sh_login -->
<g id="edge66" class="edge">
<title>sh&#45;&gt;sh_login</title>
<path fill="none" stroke="orange" stroke-dasharray="5,2" d="M555.48,-504.05C550.47,-495.19 543.28,-484.21 536.2,-474.53"/>
<polygon fill="orange" stroke="orange" points="539.02,-472.45 530.17,-466.63 533.45,-476.7 539.02,-472.45"/>
</g>
<!-- sh&#45;&gt;sh_non_login -->
<g id="edge70" class="edge">
<title>sh&#45;&gt;sh_non_login</title>
<path fill="none" stroke="green" stroke-dasharray="5,2" d="M566.72,-504.05C571.65,-495.56 578.61,-485.11 585.54,-475.73"/>
<polygon fill="green" stroke="green" points="588.14,-478.09 591.45,-468.03 582.58,-473.83 588.14,-478.09"/>
</g>
<!-- sh&#45;&gt;sh_non_login -->
<g id="edge74" class="edge">
<title>sh&#45;&gt;sh_non_login</title>
<path fill="none" stroke="blue" stroke-dasharray="5,2" d="M576.24,-506.83C583.03,-498.53 590.76,-487.77 597.11,-477.92"/>
<polygon fill="blue" stroke="blue" points="600.09,-479.75 602.35,-469.4 594.13,-476.09 600.09,-479.75"/>
</g>
</g>
</svg>
