<?xml version="1.0" encoding="UTF-8" standalone="no"?>
<!DOCTYPE svg PUBLIC "-//W3C//DTD SVG 1.1//EN"
 "http://www.w3.org/Graphics/SVG/1.1/DTD/svg11.dtd">
<!-- Generated by graphviz version 12.2.1 (0)
 -->
<!-- Pages: 1 -->
<svg width="679pt" height="584pt"
 viewBox="0.00 0.00 679.04 584.00" xmlns="http://www.w3.org/2000/svg" xmlns:xlink="http://www.w3.org/1999/xlink">
<g id="graph0" class="graph" transform="scale(1 1) rotate(0) translate(4 580)">
<polygon fill="white" stroke="none" points="-4,4 -4,-580 675.04,-580 675.04,4 -4,4"/>
<!-- init -->
<g id="node1" class="node">
<title>init</title>
<ellipse fill="none" stroke="black" cx="204.5" cy="-450" rx="54.42" ry="18"/>
<text text-anchor="middle" x="204.5" y="-444.95" font-family="Times,serif" font-size="14.00">~/.shell/env</text>
</g>
<!-- login -->
<g id="node2" class="node">
<title>login</title>
<ellipse fill="none" stroke="black" cx="275.5" cy="-234" rx="60.05" ry="18"/>
<text text-anchor="middle" x="275.5" y="-228.95" font-family="Times,serif" font-size="14.00">~/.shell/login</text>
</g>
<!-- init&#45;&gt;login -->
<g id="edge1" class="edge">
<title>init&#45;&gt;login</title>
<path fill="none" stroke="black" stroke-dasharray="1,5" d="M210.19,-431.85C222.42,-394.99 251.31,-307.92 266.23,-262.96"/>
<polygon fill="black" stroke="black" points="269.48,-264.26 269.31,-253.67 262.84,-262.06 269.48,-264.26"/>
</g>
<!-- interactive -->
<g id="node3" class="node">
<title>interactive</title>
<ellipse fill="none" stroke="black" cx="223.5" cy="-18" rx="80.01" ry="18"/>
<text text-anchor="middle" x="223.5" y="-12.95" font-family="Times,serif" font-size="14.00">~/.shell/interactive</text>
</g>
<!-- init&#45;&gt;interactive -->
<g id="edge2" class="edge">
<title>init&#45;&gt;interactive</title>
<path fill="none" stroke="black" stroke-dasharray="1,5" d="M204.19,-431.74C203.6,-393.08 202.68,-296.61 206.5,-216 209.34,-155.97 216.25,-85.92 220.33,-47.63"/>
<polygon fill="black" stroke="black" points="223.79,-48.19 221.38,-37.87 216.83,-47.43 223.79,-48.19"/>
</g>
<!-- login&#45;&gt;interactive -->
<g id="edge3" class="edge">
<title>login&#45;&gt;interactive</title>
<path fill="none" stroke="black" stroke-dasharray="1,5" d="M271.33,-215.85C262.4,-179.07 241.31,-92.29 230.36,-47.24"/>
<polygon fill="black" stroke="black" points="233.81,-46.59 228.05,-37.7 227.01,-48.25 233.81,-46.59"/>
</g>
<!-- logout -->
<g id="node4" class="node">
<title>logout</title>
<ellipse fill="none" stroke="black" cx="553.5" cy="-450" rx="64.66" ry="18"/>
<text text-anchor="middle" x="553.5" y="-444.95" font-family="Times,serif" font-size="14.00">~/.shell/logout</text>
</g>
<!-- bash_init -->
<g id="node5" class="node">
<title>bash_init</title>
<ellipse fill="none" stroke="black" cx="99.5" cy="-558" rx="53.91" ry="18"/>
<text text-anchor="middle" x="99.5" y="-552.95" font-family="Times,serif" font-size="14.00">~/.bash/env</text>
</g>
<!-- bash_init&#45;&gt;init -->
<g id="edge4" class="edge">
<title>bash_init&#45;&gt;init</title>
<path fill="none" stroke="black" d="M115.91,-540.44C133.17,-523.01 160.52,-495.4 180.26,-475.47"/>
<polygon fill="black" stroke="black" points="182.59,-478.09 187.14,-468.52 177.62,-473.16 182.59,-478.09"/>
</g>
<!-- bash_login -->
<g id="node6" class="node">
<title>bash_login</title>
<ellipse fill="none" stroke="black" cx="99.5" cy="-342" rx="59.54" ry="18"/>
<text text-anchor="middle" x="99.5" y="-336.95" font-family="Times,serif" font-size="14.00">~/.bash/login</text>
</g>
<!-- bash_init&#45;&gt;bash_login -->
<g id="edge12" class="edge">
<title>bash_init&#45;&gt;bash_login</title>
<path fill="none" stroke="black" d="M99.5,-539.85C99.5,-503.14 99.5,-416.66 99.5,-371.53"/>
<polygon fill="black" stroke="black" points="103,-371.75 99.5,-361.75 96,-371.75 103,-371.75"/>
</g>
<!-- bash_interactive -->
<g id="node7" class="node">
<title>bash_interactive</title>
<ellipse fill="none" stroke="black" cx="79.5" cy="-126" rx="79.5" ry="18"/>
<text text-anchor="middle" x="79.5" y="-120.95" font-family="Times,serif" font-size="14.00">~/.bash/interactive</text>
</g>
<!-- bash_init&#45;&gt;bash_interactive -->
<g id="edge13" class="edge">
<title>bash_init&#45;&gt;bash_interactive</title>
<path fill="none" stroke="black" d="M91.27,-539.87C75.66,-506.31 42.26,-429.13 30.5,-360 17.78,-285.21 48.48,-197.91 66.88,-154.47"/>
<polygon fill="black" stroke="black" points="69.99,-156.11 70.77,-145.55 63.57,-153.32 69.99,-156.11"/>
</g>
<!-- bash_login&#45;&gt;login -->
<g id="edge5" class="edge">
<title>bash_login&#45;&gt;login</title>
<path fill="none" stroke="black" d="M125.47,-325.36C155.84,-307.07 206.28,-276.69 240.19,-256.27"/>
<polygon fill="black" stroke="black" points="241.65,-259.47 248.42,-251.31 238.04,-253.47 241.65,-259.47"/>
</g>
<!-- bash_login&#45;&gt;bash_interactive -->
<g id="edge14" class="edge">
<title>bash_login&#45;&gt;bash_interactive</title>
<path fill="none" stroke="black" d="M97.9,-323.85C94.47,-287.14 86.38,-200.66 82.17,-155.53"/>
<polygon fill="black" stroke="black" points="85.67,-155.37 81.25,-145.74 78.7,-156.02 85.67,-155.37"/>
</g>
<!-- bash_interactive&#45;&gt;interactive -->
<g id="edge6" class="edge">
<title>bash_interactive&#45;&gt;interactive</title>
<path fill="none" stroke="black" d="M102,-108.44C126.2,-90.62 164.86,-62.17 192.06,-42.14"/>
<polygon fill="black" stroke="black" points="193.96,-45.09 199.94,-36.34 189.81,-39.45 193.96,-45.09"/>
</g>
<!-- bash_logout -->
<g id="node8" class="node">
<title>bash_logout</title>
<ellipse fill="none" stroke="black" cx="469.5" cy="-558" rx="64.15" ry="18"/>
<text text-anchor="middle" x="469.5" y="-552.95" font-family="Times,serif" font-size="14.00">~/.bash/logout</text>
</g>
<!-- bash_logout&#45;&gt;logout -->
<g id="edge7" class="edge">
<title>bash_logout&#45;&gt;logout</title>
<path fill="none" stroke="black" d="M483,-539.97C496.47,-522.97 517.35,-496.62 532.89,-477.01"/>
<polygon fill="black" stroke="black" points="535.63,-479.19 539.1,-469.17 530.14,-474.84 535.63,-479.19"/>
</g>
<!-- zsh_init -->
<g id="node9" class="node">
<title>zsh_init</title>
<ellipse fill="none" stroke="black" cx="316.5" cy="-558" rx="49.3" ry="18"/>
<text text-anchor="middle" x="316.5" y="-552.95" font-family="Times,serif" font-size="14.00">~/.zsh/env</text>
</g>
<!-- zsh_init&#45;&gt;init -->
<g id="edge8" class="edge">
<title>zsh_init&#45;&gt;init</title>
<path fill="none" stroke="black" d="M299.49,-540.9C280.99,-523.39 251.21,-495.21 229.93,-475.07"/>
<polygon fill="black" stroke="black" points="232.44,-472.62 222.77,-468.29 227.63,-477.71 232.44,-472.62"/>
</g>
<!-- zsh_login -->
<g id="node10" class="node">
<title>zsh_login</title>
<ellipse fill="none" stroke="black" cx="316.5" cy="-342" rx="54.93" ry="18"/>
<text text-anchor="middle" x="316.5" y="-336.95" font-family="Times,serif" font-size="14.00">~/.zsh/login</text>
</g>
<!-- zsh_init&#45;&gt;zsh_login -->
<g id="edge15" class="edge">
<title>zsh_init&#45;&gt;zsh_login</title>
<path fill="none" stroke="black" d="M316.5,-539.85C316.5,-503.14 316.5,-416.66 316.5,-371.53"/>
<polygon fill="black" stroke="black" points="320,-371.75 316.5,-361.75 313,-371.75 320,-371.75"/>
</g>
<!-- zsh_interactive -->
<g id="node11" class="node">
<title>zsh_interactive</title>
<ellipse fill="none" stroke="black" cx="363.5" cy="-126" rx="74.89" ry="18"/>
<text text-anchor="middle" x="363.5" y="-120.95" font-family="Times,serif" font-size="14.00">~/.zsh/interactive</text>
</g>
<!-- zsh_init&#45;&gt;zsh_interactive -->
<g id="edge16" class="edge">
<title>zsh_init&#45;&gt;zsh_interactive</title>
<path fill="none" stroke="black" d="M324.14,-539.8C338.62,-506.11 369.62,-428.73 380.5,-360 392.07,-286.95 378.53,-199.74 369.78,-155.62"/>
<polygon fill="black" stroke="black" points="373.22,-154.93 367.77,-145.84 366.36,-156.34 373.22,-154.93"/>
</g>
<!-- zsh_login&#45;&gt;login -->
<g id="edge9" class="edge">
<title>zsh_login&#45;&gt;login</title>
<path fill="none" stroke="black" d="M309.91,-323.97C303.56,-307.53 293.82,-282.35 286.32,-262.97"/>
<polygon fill="black" stroke="black" points="289.63,-261.82 282.75,-253.75 283.1,-264.34 289.63,-261.82"/>
</g>
<!-- zsh_login&#45;&gt;zsh_interactive -->
<g id="edge17" class="edge">
<title>zsh_login&#45;&gt;zsh_interactive</title>
<path fill="none" stroke="black" d="M322.77,-323.82C329.05,-306.06 338.61,-277.4 344.5,-252 352.08,-219.29 357.39,-181.04 360.43,-155.55"/>
<polygon fill="black" stroke="black" points="363.9,-155.98 361.57,-145.64 356.95,-155.18 363.9,-155.98"/>
</g>
<!-- zsh_interactive&#45;&gt;interactive -->
<g id="edge10" class="edge">
<title>zsh_interactive&#45;&gt;interactive</title>
<path fill="none" stroke="black" d="M341.63,-108.44C318.1,-90.62 280.51,-62.17 254.07,-42.14"/>
<polygon fill="black" stroke="black" points="256.51,-39.61 246.43,-36.36 252.29,-45.19 256.51,-39.61"/>
</g>
<!-- zsh_logout -->
<g id="node12" class="node">
<title>zsh_logout</title>
<ellipse fill="none" stroke="black" cx="611.5" cy="-558" rx="59.54" ry="18"/>
<text text-anchor="middle" x="611.5" y="-552.95" font-family="Times,serif" font-size="14.00">~/.zsh/logout</text>
</g>
<!-- zsh_logout&#45;&gt;logout -->
<g id="edge11" class="edge">
<title>zsh_logout&#45;&gt;logout</title>
<path fill="none" stroke="black" d="M602.18,-539.97C593.05,-523.28 578.99,-497.58 568.32,-478.08"/>
<polygon fill="black" stroke="black" points="571.39,-476.41 563.52,-469.32 565.25,-479.77 571.39,-476.41"/>
</g>
</g>
</svg>
